<svg style="width:100%; height:100%;" xmlns="http://www.w3.org/2000/svg" xmlns:xlink="http://www.w3.org/1999/xlink" version="1.1" id="Слой_1" x="0px" y="0px" viewBox="0 0 1024 295.223" enable-background="new 0 0 1024 295.223" xml:space="preserve" preserveAspectRatio="xMidYMid meet"><path fill="currentColor" stroke="" stroke-width="2" stroke-linecap="round" stroke-linejoin="round" stroke-miterlimit="10" d=" M901.615,85.92c0,0-28.564,16.666-43.47,19.221c0,0-40.473,9.824-80.932,0.028c0,0-9.343-6.459-1.711-7.391 c2.129-0.26,42.158-4.512,42.158-4.512s8.942-3.829,9.367-19.161c0,0,4.258-24.273-4.26-33.217c0,0-16.61-20.441-28.96-22.145 c0,0-18.313-15.757-50.254-11.498c0,0-18.313,6.814-31.089,20.016c0,0-33.218,24.917-41.31,30.771l-16.183,12.242 c0,0-27.256,6.814-99.229,5.111c0,0-236.787-1.703-292.151,5.962c0,0-51.105,4.685-73.677,12.35c0,0-30.663,8.943-37.903,9.795 c0,0-32.367,5.536-48.55,17.887c0,0-34.07,13.202-49.402,15.757l-17.887,4.259c0,0-20.868,5.111-20.016,9.795l5.962,2.981 l0.426,2.116l2.555-2.143l1.899,1l0.656,2l3.344-2c0,0,17.524-1,22.635,1.143l13.709,4.958c0,0-6.618,4.302-29.78,1.654 c0,0-7.279,0.331-17.537-3.971c0,0-5.625-2.647-8.603-0.331c0,0-2.978,2.647,5.294,6.618c0,0,6.287,12.243,60.552,15.552 c0,0,28.787,14.89,45,13.566c0,0,18.53,6.618,25.478,3.64c0,0,26.802,4.963,34.081,3.971l25.809,8.603l20.515,42.684 c0,0,11.25,24.816,32.096,36.066c0,0,11.912,2.647,14.228-7.279c0,0,3.971-19.853,0.993-26.802c0,0-0.993-19.853-8.603-26.14 l-20.515-16.544c0,0,103.567,4.301,120.442,4.963l83.052,2.316c0,0,9.596,3.64,15.552,2.978c0,0,30.667,40.368,46.602,53.934 c0,0,12.296,13.214,22.553,12.894c0,0,3.971-5.284,3.64-10.578c0,0,3.971-9.596,3.64-19.522c0,0-0.331-13.897-5.294-18.53 c0,0-0.993-7.941-7.61-10.919l-20.846-11.69c0,0,154.854-2.734,159.486-5.734H685l19.628,10.726c0,0,62.868,43.883,94.633,39.25 c0,0,21.177-2.048,26.802-6.018c0,0,8.934-3.34,12.904-13.267c0,0,6.287-10.273,3.309-22.847l-2.978-13.574 c0,0-1.985-16.548-14.228-21.842c0,0-11.912-4.965-19.522-5.296c0,0,58.567-7.942,85.699,6.948c0,0,79.412,35.404,104.56,37.72 c0,0,13.897,3.309,16.544-9.927l2.316-10.919c0,0,1.324-13.235-7.279-23.162c0,0-3.64-17.206-11.581-25.478 c0,0-6.618-18.86-10.257-20.515c0,0-4.302-5.625,0.331-8.934c0,0,24.301-26.471,28.86-49.633c0,0,2.39-17.868,0-27.133 c0,0,0.919-10.257-9.669-7.61c0,0-43.677,9.927-70.478,22.5C934.593,63.637,913.307,74.784,901.615,85.92z"/></svg>