<svg style="width:100%; height:100%;" xmlns="http://www.w3.org/2000/svg" xmlns:xlink="http://www.w3.org/1999/xlink" version="1.1" id="Слой_1" x="0px" y="0px" viewBox="0 0 1024 432.658" enable-background="new 0 0 1024 432.658" xml:space="preserve" preserveAspectRatio="xMidYMid meet"><path fill="currentColor" stroke="" stroke-width="2" stroke-miterlimit="10" d="M707.491,178.421c0,0,44.221-11.055,47.537-15.477 c0,0-2.211-7.186-5.528-7.186c0,0,2.764-8.291-8.844-12.714c0,0-2.764-8.844-14.925-11.608c0,0,2.211-7.739-15.477-10.502 c0,0-7.186-12.161-23.769-11.055c0,0-3.317-10.502-25.98-8.291c0,0-4.975-8.844-23.216-6.08c0,0-2.764-7.186-21.558-4.422 c0,0-3.869-7.186-21.005-6.633c0,0-4.975-7.186-19.347-4.975c0,0-3.869-4.975-16.583-4.422c0,0-11.055-4.422-20.452-3.869 c0,0-6.633-8.291-19.347-7.739c0,0-6.08-8.844-14.925-8.844c0,0-1.106-13.266-6.08-16.03c0,0-0.553-12.161-2.764-14.925 c0,0,3.317-22.11-26.533-8.844c0,0-56.382,30.402-84.02,67.437c0,0-16.583,8.844-24.874,17.688c0,0-160.301,13.608-221.657,75.517 c0,0-16.03,17.899-35.377,28.402c0,0-22.11,4.422-36.482,23.769c0,0-7.739,8.844-19.899,12.161c0,0-13.266,1.658-25.427,12.714 c0,0-13.266,5.528-11.055,21.005c0,0-4.366,5.528-0.249,11.055c0,0,11.304,3.317,18.49,0c0,0-1.106,3.869-10.502,10.502 c0,0-7.739,3.317,4.422,7.739c0,0,9.397,2.206,14.372,0c0,0,3.869,4.422,8.844,5.528c0,0,0,8.844,8.844,13.266 c0,0-6.08-8.844-2.211-14.372l16.583,0.553c0,0,29.849,9.397,49.748,9.397c0,0,21.005,9.95,39.246,8.844c0,0,21.005,0,32.06,2.764 c0,0,21.005,7.739,67.99,14.925c0,0,42.01,52.512,81.809,56.934c0,0,12.714,0,11.608-13.266c0,0,0.553-12.161-4.422-22.11 c0,0-0.553-13.266-3.869-17.688l71.859,0.553c0,0,38.141,49.196,69.648,64.12c0,0,22.11,14.925,42.563,12.161 c0,0,6.633-2.764,6.633-8.291l-2.764-5.528c0,0,2.211-0.553,4.422-3.317l-4.422-11.055l-12.161-32.613 c0,0-2.211-12.161-24.321-9.397c0,0-7.186-0.553-14.925-3.317c0,0-11.608-4.975-22.663-3.317l-2.211-3.869 c0,0,34.824,0,80.703-2.211c0,0,75.728-2.211,84.02-5.528c0,0,10.502,3.317,16.03,3.317l12.161,7.739 c0,0,54.723,48.643,87.889,51.407c0,0,21.005,7.739,34.271-4.975l-2.764-4.422c0,0,3.869-1.755,4.422-5.023l-6.08-9.901 c0,0,3.869-4.975-0.553-15.477l-1.658-4.975c0,0,1.658-1.658,0.553-7.739c0,0,3.317-5.528-1.106-11.608 c0,0,4.975-9.397-7.186-17.688c0,0-0.553-7.186-19.347-9.397c0,0-22.11,1.106-29.849-6.633c0,0,30.955-12.714,71.859-9.397 c0,0,35.377,3.869,41.457,3.869l12.161,2.211c0,0,47.537,24.874,75.175,34.271c0,0,45.326,22.11,63.015,22.663 c0,0,40.904,7.186,47.537-12.372c0,0-2.211-3.658-6.08-4.211c0,0,6.08-7.739-4.975-21.005l-4.975-1.658 c0,0-1.106-11.055-7.186-8.844c0,0,1.658-10.502-9.397-16.03l-4.975-2.764c0,0-1.106-12.161-9.397-17.688 c0,0-5.528-9.95-14.372-13.266c0,0-1.658-8.844-8.844-13.266c0,0-2.211-8.291-6.633-10.502c0,0,4.422-4.975,3.317-9.95 c0,0,5.528-6.633,7.186-13.266c0,0,4.422-2.764,7.186-8.844l3.869-4.975c0,0,9.397-4.422,9.95-16.583 c0,0,9.397-12.714,10.502-21.005c0,0,7.186-12.714,6.08-22.11c0,0,4.422-6.633,5.528-13.266c0,0,9.95-8.844,6.08-24.321 c0,0,9.95-9.95-10.502-9.95c0,0-37.035,8.291-51.96,18.794c0,0-38.141,21.558-73.517,49.748l-19.899,11.055 c0,0-14.372,9.397-17.136,13.266c0,0-8.998,4.433-37.588,10.502c0,0-50.854,4.08-70.201-3.658L707.491,178.421z"/></svg>