<svg style="width:100%; height:100%;" xmlns="http://www.w3.org/2000/svg" xmlns:xlink="http://www.w3.org/1999/xlink" version="1.1" id="Слой_1" x="0px" y="0px" viewBox="0 0 1024 527.613" enable-background="new 0 0 1024 527.613" xml:space="preserve" preserveAspectRatio="xMidYMid meet"><path fill="currentColor" stroke="" stroke-width="2" stroke-linecap="round" stroke-linejoin="round" stroke-miterlimit="10" d=" M1017.786,142.281c0,0-33.264-9.292-164.268,61.462c0,0-28.793,8.897-50.351,24.927c0,0-73.542,15.504-149.27-15.451 c0,0,45.314,7.199,58.028,3.33c0,0-0.559-11.049-5.534-12.707c0,0,3.866-4.419-6.083-11.605c0,0-0.554-7.737-4.424-9.948 c0,0-3.317-8.291-8.292-9.949c0,0,2.211-4.422-3.87-4.422c0,0-3.87-13.819-11.055-17.688c0,0,0.553-5.528-6.08-5.528 c0,0-1.658-7.739-5.528-8.844c0,0-1.106-8.844-3.869-11.055c0,0,0-7.186-6.633-9.397c0,0,2.211-5.528-3.317-6.08 c0,0,1.658-12.714-3.317-13.819c0,0,3.869-10.502-2.764-9.397c0,0,6.08-11.055,0-10.502c0,0,4.975-11.055-3.317-7.739 c0,0,0.82-0.553,4.136-8.844c0,0-13.979,0.553-38.979,15.477V69.31c0,0-45.005,29.514-78.171,66.549c0,0-12.589,6.08-19.222,4.422 c0,0-1.043-8.844,3.379-12.714c0,0-22.079,7.739-7.707-12.714c0,0-26.517-3.317-8.829-28.191c0,0-21.55,15.477-10.495-27.638 c0,0-8.84,0-17.132,4.975c0,0-18.792-3.226-3.867-32.613c0,0-13.265,1.106-27.084,12.714c0,0-12.713,4.975-7.738-22.11l2.211-9.95 c0,0-17.688,7.739-35.377,28.191c0,0-9.414,4.422-7.756-8.291c0,0,3.787-10.502-0.213-19.899V6.31c0,0-35.949,30.052-50.873,73.72 c0,0-10.377,10.502-5.403-18.241c0,0-15.415,11.055-23.706,48.643c0,0-5.496,2.764-3.285-9.95c0,0-11.04,13.266-9.934,28.191 c0,0-40.896,6.186-72.957,24.98c0,0-43.664,18.688-93.413,70.095c0,0-34.822,27.959-58.591,44.934c0,0-22.109,11.447-33.717,21.95 c0,0-21.004,13.266-21.004,22.663c0,0-5.527,3.869-3.316,8.844c0,0-1.105,10.502,3.317,12.161c0,0,21.005,20.452,40.352,23.769 c0,0,21.005,7.186,32.06,8.291c0,0,30.955,10.502,63.568,11.608c0,0,5.08,3.975,33.271,7.844c0,0,20.347,7.844,87.783,13.925 c0,0,33.166,5.317,37.588,5.317c0,0,28.744,59.698,66.331,87.889c0,0,12.161,8.433,55.829,25.427c0,0-7.186-6.08-4.422-20.452 l2.211-9.95l3.317,1.106c0,0-1.658-8.844,1.105-9.95l1.106-12.714c0,0,0.553-16.03,1.658-17.688s2.764-25.427-3.317-28.191 c0,0-9.397-6.08-7.739-10.502c0,0-9.397-14.925-29.849-13.266c0,0-23.216,1.658-24.321-6.08c0,0,7.186,0,9.95-3.317 c0,0,9.153-1.66,23.216-0.553c0,0,102.814,7.186,159.195,2.211c0,0,8.291,18.794,18.241,25.427l-2.764-13.266 c0,0,45.326,49.196,69.095,57.487l-7.186-9.95c0,0-5.528-9.95,12.714-4.422c0,0,15.477,4.975,20.452,4.422l13.161,2.422 c0,0,16.688,2,20.558-15.136c0,0,0-13.266-2.211-30.955c0,0-6.08-38.693,14.372-60.251c0,0-38.693,4.975-45.879,1.658 c0,0,23.769-22.663,123.266-13.819c0,0,38.693,23.769,53.065,23.216c0,0,107.63,67.99,169.895,58.04l-7.383-3.869 c0,0-7.186-3.869-6.08-16.583c0,0,0-56.382-15.477-89.547c0,0-7.739-13.266-2.764-39.246c0,0,16.583-49.196,12.714-63.015 c0,0,9.397-8.844,9.95-25.98C1008.745,175.657,1005.823,150.915,1017.786,142.281z"/></svg>