<svg style="width:100%; height:100%;" xmlns="http://www.w3.org/2000/svg" xmlns:xlink="http://www.w3.org/1999/xlink" version="1.1" id="Слой_1" x="0px" y="0px" viewBox="0 0 1024 384" enable-background="new 0 0 1024 384" xml:space="preserve" preserveAspectRatio="xMidYMid meet"><path fill="currentColor" stroke="" stroke-width="2" stroke-linecap="round" stroke-linejoin="round" stroke-miterlimit="10" d=" M1009.955,143.679c0,0-39.174-4.536-81.057,15.6c0,0-44.354,19.278-52.006,20.486c0,0-27.413,8.431-41.105,14.471 c0,0-43.91,9.652-76.128-0.013c0,0-4.437-3.631,9.659-8.061c0,0,13.689-2.017,17.716-6.044c0,0-4.834-5.785-3.224-9.337 c0,0-25.775-25.3-37.857-23.286c0,0,1.61-6.041-3.222-7.652c0,0-8.86-2.014-10.471-4.027c0,0,8.054-2.014-12.484-9.263 c0,0,4.833-6.846-19.733-17.72c0,0,1.611-6.846-2.014-7.652c0,0-7.652-0.805-11.276-8.054c0,0-8.457-1.208-9.263-6.041 c0,0-7.249-2.416-8.054-5.638c0,0-5.235-4.027-10.471-4.027c0,0-2.416-6.444-9.263-5.235c0,0,0.403-7.249-12.484-4.027 c0,0-23.761,6.444-33.426,18.123l-20.539,13.29c0,0-33.426,20.942-41.48,29.399c0,0-17.72,10.874-18.122,13.29l-26.177-0.805 c0,0-5.638-7.249-2.819-12.887c0,0-6.444-0.403-2.819-16.512c0,0-9.864,2.416-1.106-21.747c0,0-9.365,5.195-10.17-22.975 c0,0-9.665,8.477-14.095-16.492c0,0-12.887,8.86-18.928-9.263c0,0-17.72,8.457-18.928-7.652c0,0-14.901,9.665-19.331-8.457 c0,0-17.317,16.914-23.358-6.846c0,0-14.901,17.72-17.317-6.041c0,0-13.693,16.109-15.706-4.43c0,0-21.747,26.58-25.371,4.43 c0,0-16.512,22.552-19.733,33.829c0,0-12.887,12.082-6.041-3.222c0,0-19.733,20.539-32.218,65.241c0,0-4.027,24.969-13.29,30.204 c0,0-74.906,10.068-132.093,53.965c0,0-12.887,7.249-20.136,8.457c0,0-23.358,6.444-28.191,12.887c0,0-6.42,5.307-21.539,11.874 c0,0-28.399,8.665-33.231,14.303c0,0-16.914,8.457,0,19.733c0,0-17.317,0-12.887,10.471c0,0,1.805,7.054,13.484,9.471 c0,0,9.471,3.416,13.498,7.041c0,0,14.901,4.027,32.621,3.222c0,0,24.566,6.762,40.272,2.777c0,0,12.887,2.07,21.344,1.257 c0,0,19.331,6.242,29.399,1.812c0,0,40.675,10.263,114.776,10.665c0,0,21.747,28.593,26.982,30.204c0,0,23.761,31.815,35.44,35.037 c0,0,0.805-4.027,9.263,0c0,0,25.371,11.679,39.064,5.235l0.403-4.027c0,0,5.235-1.611,5.638-9.263l-1.611-9.263 c0,0,4.833-12.082-2.819-26.982c0,0,3.222-8.457-5.638-15.303l-2.416-3.625c0,0,84.572,1.611,113.165-6.041 c0,0,53.159-14.095,68.463-8.054c0,0,25.774,12.887,50.34,41.078c0,0,21.747,24.163,31.815,21.344c0,0,14.498,2.014,20.136,0 c0,0,14.901,2.014,22.15-7.249c0,0,12.082-5.235,12.082-14.498c0,0,8.86-6.041,6.041-12.484c0,0,4.43-3.222,5.235-6.444 c0,0,7.652-7.249,6.846-16.109c0,0,5.235-7.652,3.624-11.679c0,0,2.014-7.652-2.014-9.263c0,0-29.399-3.222-33.829-8.457 c0,0,98.264-22.552,142.161-10.874c0,0,25.653,8.385,39.064,16.928c0,0,31.815,17.706,37.856,16.053 c0,0,46.313,28.233,89.404,28.635c0,0,20.136-0.403,21.344-7.652c0,0,3.222-4.43,0-9.665c0,0,4.833-7.652-5.638-16.109 c0,0-0.805-10.068-7.652-12.887c0,0,4.705-14.498-22.277-29.399c0,0-3.182-6.041-8.182-6.444v-4.005c0,0,8.768-6.063,9.171-8.882 c0,0,5.208-3.222,6.013-8.457c0,0,5.423-0.805,9.047-8.054c0,0,7.343-3.222,7.745-10.068c0,0,8.101-10.068,7.296-15.303 c0,0,4.856-7.652,4.051-13.693c0,0,7.663-11.679,4.039-14.498C1015.362,156.354,1019.842,144.116,1009.955,143.679z"/></svg>