<svg style="width:100%; height:100%;" version="1.0" xmlns="http://www.w3.org/2000/svg" viewBox="0 0 1280 640" preserveAspectRatio="xMidYMid meet"><g transform="translate(0.000000,640.000000) scale(0.100000,-0.100000)" fill="currentColor"><path fill="currentColor" d="M6185.41,5444c-195-114-393-279-754-629c-146-142-290-276-320-298c-82-61-120-99-120-119c0-14-5-17-23-12 c-13,3-106-4-206-15c-127-15-245-21-394-21c-208,0-618-20-840-40c-128-12-543-70-757-105c-126-21-295-59-759-171 c-57-13-158-34-225-45c-148-25-211-42-394-108c-78-28-156-51-174-51c-43,0-477-147-617-209c-220-97-423-222-502-309 c-60-65-79-105-79-161c0-32,6-44,35-70c32-28,212-121,234-121c6,0,12-4,16-10c3-5-14-14-37-21c-35-9-57-8-120,7 c-89,20-122,12-139-33c-24-63,47-139,223-240c82-47,149-75,266-113c186-59,970-260,1015-260c51,0,242-39,372-75 c66-19,253-64,415-101c162-36,301-71,309-77c7-6,61-79,119-161c179-253,407-520,476-558c46-25,78-22,107,10c61,66,61,68,67,314 c4,204,7,228,21,224c44-13,415-68,636-95c511-62,710-74,1120-68c203,3,382,8,396,12c24,6,28,2,57-62c17-37,49-90,71-118 c22-27,59-75,82-105c105-139,151-161,203-99c14,17,26,36,26,42c0,7,12,24,25,40l24,27l33-34c18-18,112-107,208-198 c164-153,301-263,378-302c32-16,35-16,65,1c18,11,42,34,54,53c34,49,32,167-4,269c-18,54-28,103-31,168c-4,85-6,92-26,95 s-21,10-27,118c-6,130-15,155-66,190l-36,24l159,23c590,83,1147,137,1304,128c58-3,126-10,151-16c55-12,258-117,424-219 c188-114,472-261,748-384c264-118,296-130,361-127c43,1,106,35,106,56c0,8,9,20,21,29c14,10,19,20,15,34c-4,11-1,24,8,31 c8,6,17,28,21,49c3,20,26,98,50,172c66,206,76,272,74,505c-3,232-4,235-80,235c-66,0-143,17-212,48l-59,26l79,29 c229,85,837,108,1038,39c33-11,160-50,282-86s318-99,435-140s305-99,418-129c174-47,234-59,400-76c152-16,385-27,463-22 c4,1-3,22-17,49c-13,26-31,79-39,117c-9,39-28,124-43,190c-21,93-68,244-78,245c0,0-32,11-70,24l-68,23l46,32c25,18,46,38,46,46 c0,7-20,72-45,143c-50,143-58,227-29,283c14,28,14,32,0,48c-23,25-20,37,16,59c29,18,36,32,57,109c13,48,37,113,52,144 c37,75,32,122-18,152l-34,20l27,18c46,30,52,62,53,256c0,98,0,219,1,270c0,90,0,92-29,112c-41,29-115,27-287-8 c-292-60-551-162-879-345c-76-43-187-111-245-151c-170-117-247-154-394-191c-195-50-309-65-494-65c-173,0-472,20-472,31 c0,13,74,39,167,60c104,24,142,47,138,84c-5,40-35,83-73,100c-55,27-169,47-226,40c-58-7-253-63-369-105c-142-52-180-55-367-25 c-91,14-262,37-380,52c-118,14-352,47-520,74s-458,72-645,100c-336,50-485,75-638,107l-78,16l108,28c59,16,155,40,213,54 c116,28,200,62,200,80c0,7-7,18-15,25s-15,25-15,39c0,33-24,56-143,136c-100,67-180,148-216,218c-30,59-52,65-120,33 c-86-39-114-11-36,36c26,16,45,35,45,45s-53,70-118,133c-102,100-120,123-130,162c-10,37-23,56-68,94c-30,26-62,60-70,76 c-16,31-47,36-78,13c-54-41-75,2-30,60c19,25,24,40,19,57c-9,29-34,58-60,68C6315.41,5513,6284.41,5502,6185.41,5444z"/></g></svg>