<?xml version="1.0" encoding="UTF-8"?>
<svg id="Calque_1" xmlns="http://www.w3.org/2000/svg" version="1.1" viewBox="0 0 896 1152" fill="#fff">
  <!-- Generator: Adobe Illustrator 30.1.0, SVG Export Plug-In . SVG Version: 2.1.1 Build 136)  -->
  <path d="M378.07,821.68l-66.04.2c-4.82.01-9.73-1.73-10.5-7.86l74.5.22c1.58,0,3.34,1.39,3.92,2.38s-.72,5.06-1.87,5.06h-.01Z"/>
  <path d="M558.87,838.19l-35.86-.02c-1.38,0-2.69-3.38-2.3-4.53.46-1.32,2.5-3.5,4.15-3.49l42.94.47c-1.56,4.87-5.3,7.56-8.93,7.56h0Z"/>
  <path d="M379.39,837.96l-34.29.1c-4.77.01-9.54-2.54-9.81-7.89h39.85c1.73,0,3.95,1.2,4.96,2.09s.64,5.7-.71,5.7Z"/>
  <path d="M540.13,847.14c-.56,10.34-21.83,8-27.04,7.01-1.14-.22-1.23-4.16-.4-4.98.83-.82,2.98-2.55,4.28-2.52l23.16.49Z"/>
  <path d="M387.06,854.28c-6.91.94-23.77,2.63-26.53-7.09,7.78-.48,15.86-.6,23.5-.55,1.16,0,3.42,1.76,4.21,2.53.92.9.3,4.9-1.18,5.11Z"/>
  <g>
    <path d="M278.2,750.05c-3.58-1.77,4.53-6.12,4.58-8.14.26-9.85,1.08-20.52-.76-31.06-4.42,5.84-11.43,32.83-15.71,34.15-1.63.5-5.29-.66-5.9-2.13-4.6-11.13-7.69-21.56-13.45-32.84-1.88,10.88-.91,22.18-.97,31.63,0,1.57,7.87,8.2,3.76,8.67-1.67.19-19.12,1.99-17.07-1.99,2.43-4.7,5.71-3.51,5.71-8.22l-.02-43.05c0-4.63-4.14-3.09-4.8-7.51-.13-.84,2.31-2.23,3.2-2.18l12.1.55c3.49.16,13.13,35.38,17.91,41.2l15.23-40.75,14.81-1.06,1.99,2.34c2.01,2.36-4.79,2.39-4.77,9.2l.1,42.28c.01,4.25,2.79,2.3,5.31,7.26.37.73-1.86,2.51-2.86,2.5l-15.57-.03c-.73,0-2.28-.56-2.84-.84l.02.02Z"/>
    <path d="M427.29,710.39c-5.33,6.83-11.2,34.17-16.84,34.73-1.89.19-4.58-1.25-5.29-3.06-4.31-10.91-7.77-21.02-13.2-32.07-1.75,10.69-.98,22.21-.98,31.54,0,1.42,2.59,3.32,3.34,4.13l1.78,1.92c.51.56-.85,2.95-1.59,2.97l-12.59.46c-.87.03-3.08-1.11-3.44-1.9-1.53-3.36,5.55-3.55,5.54-8.95l-.1-42.33c-.01-5.56-5.68-5.09-4.69-8.25.26-.83,1.75-1.95,2.63-2.43l13.61.74,15.87,41.23c7.15-13.78,10.48-26.85,16-41.03l13.59-.71c.95-.05,3.03,1.47,2.95,2.36-.36,4.33-4.8,3.61-4.78,7.19l.29,46.91c3.39,1.03,6.01,3.01,4.53,6.57l-17.9.58c-.94.03-3.15-1.11-3.51-1.91-1.75-3.91,5.64-3.2,5.58-9.94-.08-9.84.81-18.5-.79-28.77v.02Z"/>
    <path d="M562.18,748.77c-.01,1.95-6.62,2.27-7.67.55-8.6-13.99-16.31-28.82-27.27-42.76-1.4,11.79-.97,24.57-1.06,35.12-.02,2.78,2.15,1.67,5.21,6.84.42.71-1.73,2.48-2.65,2.48l-10.97.05c-1.09,0-3.23-.81-3.5-1.7-1.21-4.07,5.14-3.98,5.12-8.16l-.18-46.68-4.02-2.48c-.82-.51.05-4.35,1.01-4.35h12.19l12.27,19.46c4.21,6.68,7.68,12.58,13.65,19.39l.82-28.78c.14-4.78-4.24-3.59-4.84-8.19-.11-.88,2.13-2.08,3.09-2.08l10.84-.05c.88,0,2.89,1,3.17,1.78.34.94-.68,2.78-1.45,3.42l-3.49,2.93-.28,53.2h0Z"/>
    <path d="M489.05,725.2c-6.07-7.08-14.74-3.48-14.72-1.26l.16,19.67c5.56.61,12.17.63,16.78-.27,3.17-.62,1.86-6.29,6.4-8.18,5.63-2.34,3.9,11.71,3.15,15.77l-39.96-.07c-.75,0-2.48-.89-2.7-1.6-1.35-4.19,5.25-3.65,5.25-9.1l-.04-42.41c0-1.6-1.91-3.89-2.95-5.01l-2.05-2.2c-.56-.61,1.6-3.03,2.69-3.03l37.1.02c3.13,1.26,3.58,12.58.95,13.88-1.2.59-3.86-.46-4.48-1.59l-3.05-5.48-17.16-.14-.11,19.66c4.4,1.01,9.04,1.13,12.77-.26l2.03-3.12c.54-.84,4.37-.72,4.56.26.56,2.88,1.98,15.28-1.55,15.78-.84.12-2.51-.66-3.07-1.32Z"/>
    <path d="M680.03,735.44c-1.05,9.02-6.94,15-15.78,15.99-4.98.55-10.85-.76-16.22-1.36-1.72-.19-6.4,1.33-7.11-1.13-1.05-3.65-2.74-19.15,3.29-16.57,5.16,2.21,3.66,14.1,15.87,12.96,4.4-.41,8.59-2.26,9.69-6.13,1.18-4.14.05-9.57-4.17-11.92l-14.6-8.13c-5.88-3.28-9.54-8.54-9.66-14.75s2.5-12.22,8.61-15.39c6.63-3.43,13.91-1.98,20.95-.62,1.68.32,5.67-2.84,6.69,1.37.69,2.85,2.17,13.92-2.44,14.75s-3.6-8.51-10.63-10.68c-3.63-1.12-8.24-1.01-10.76,1.8-4.13,4.61-1.89,11.57,3.27,14.42l14.11,7.79c6.43,3.55,9.76,9.92,8.87,17.6h.02Z"/>
    <path d="M612.73,750.8l-17.69.25c-.97.01-2.97-.94-3.28-1.7-1.52-3.77,5.7-3.35,5.7-8.18v-45.62c-.64-2.03-6-2.06-8.59-1.39-4.37,1.14-3.63,9.81-8.31,7.96-2.92-1.16-2.17-10.86-.79-14.68l47.38.08c1.06,3.41,2.12,17.08-2.72,14.93-4.42-1.96-2.83-7.41-7.23-8.27-2.32-.45-6.92-.3-8,1.61l-.13,45.27c0,1.3,1.76,3.41,2.69,4.06l2.33,1.61c.68.47-.36,4.05-1.36,4.07h0Z"/>
    <path d="M361.66,737.36c-4.55,9.97-14.15,14.97-24.58,14.3-7.2-.47-14.37-3.03-18.31-9.46-7.71-12.56-8.44-28.37-2.3-41.71,4.65-10.11,14.87-14.34,25.52-13.57s18.08,6.31,21.13,16.13c3.46,11.17,3.64,23.16-1.45,34.31h-.01ZM351.35,702.75c-2.34-5.9-7.17-9.54-12.85-9.39-17.51.47-15.69,29.1-12.49,41.49,1.63,6.31,6.59,10.24,12.51,10.38,17.46.41,18.59-27.95,12.83-42.48Z"/>
  </g>
  <g>
    <g>
      <path d="M171.05,672.54c19.17-26.75,24.7-55.54,28.23-87.49-12.71-4.04-12.09,11.08-19.63,5.92-1.81-1.24-2.62-4.55-1.78-6.91,4.11-11.51,13.97-11.72,22.78-15.27,2.09-18.39,4.38-35.86,9.82-53.43,3.23-10.44,9.16-18.78,14.97-28.89-33.09-14.49-87.6-26.66-110.84,10.27-9.57,15.21-11.18,33.02-4.43,48.8,7.31,17.08,25.01,26.47,43.01,22.8,12.63-2.58,22.3-12.07,24.18-24.97.73-4.99-1.31-10.71-3.95-14.73-7.85-11.97-18.19-.09-21.74-7.84-.82-1.79.62-4.96,2.88-6.16,7.68-4.12,16.57-2.96,23.5,2.36,9.12,7.01,12.63,18.59,10.92,29.89-2.07,13.73-10.22,24.35-23.22,29.97-22.81,9.88-49.13.9-62.22-20.58-10.02-16.44-10.8-36.63-3.91-54.63,3.75-9.8,8.74-18.53,16.61-25.49,35.93-31.74,83.2-19.62,125.16-8.62,24.76,6.49,55.55,12.32,79.9,3.88,14.88-5.16,11.79-21.96,18.93-17.39,8.48,5.42-1.8,24.59-12.42,32.73-23.33,17.89-59.73,12.48-86.88,4.72-4.93,10.47-7.91,21.21-8.73,32.56l-3.16,43.71c8.2.4,26.1.21,30.02-6.43,1.6-2.72,3.54-3.84,6.47-3.35,2.1.35,3.91,3.22,3.51,6.06-2.72,19.04-27.33,16.91-40.88,18.74-4.14,32.44-8.32,57.2-26.07,84.23-13.82,21.06-35.1,34.39-60.26,37.85-19.19,2.64-39.41-.62-54.91-12.75-21.73-17-28.14-46.96-18.15-72.1s36.87-37.29,62.41-29.22c16.29,5.15,26.06,19.12,26.01,36.25-.04,13.39-6.54,25.68-19.3,30.8-9.19,3.69-22.11,1.6-23.93-5.46-.34-1.32.9-4.8,2.23-5.33,2.59-1.03,6.49,1.09,9.2,1.33,9.49.82,16.11-8.1,16.13-17.45.04-16.48-15.11-28.38-31.32-25.59-22.83,3.93-36.47,25.01-33.24,47.68,2.47,17.32,12.63,30.93,29.2,36.9,22.06,7.95,50.69,2.48,64.9-17.35v-.02Z"/>
      <path d="M450.61,639.09c-13.23,1.05-24.05,1.68-36.76,1.98-1.62.04-3.63-4.01-3.34-5.58,1.41-7.87,9.3-4.52,9.29-13.52l-.06-94.91c0-7.85-8.09-4.1-9.09-11.61-.25-1.86,1.65-5.79,3.75-5.89l37.75-1.79c1.69-.08,3.01,4.9,2.56,6.53-1.85,6.66-9.83,4.61-9.78,12.64l.22,34.12c.02,2.74,1.97,5.15,4.63,5l25.03-1.46.22-40.73c.04-7.26-8.99-4.99-7.9-12.31.35-2.32,3.1-4.63,5.74-4.79l31.3-1.94c2.46-.15,5.49,1.72,5.9,3.63,2.06,9.48-9.11,5.98-9.1,16.63l.08,92.89c0,9.84,9.3,6,8.19,14.5-.26,1.97-3.08,4.09-5.49,4.19l-33.95,1.33c-1.58.06-3.46-4.07-3.18-5.62,1.16-6.4,8.52-5.26,8.46-11.11l-.41-42.56-26.67.47c-1.32.02-2.98,3.47-2.97,4.9l.14,36.92c.03,9,8.23,5.06,9.36,12.53.24,1.58-1.62,5.39-3.92,5.57h0Z"/>
      <path d="M570.04,627.45c.73-7.55,9.63-5.03,9.59-13.08l-.36-93.31c-.04-11.26-7.85-5.42-8.05-13.59-.05-2.14,2.25-5.16,4.92-5.32l22.63-1.36c1.56-.09,3.57,2.98,4.26,4.4l34.18,69.37c.31.63,1.8,1.46,2.26,1.28s1.52-1.5,1.51-2.35l-.29-55.15c-.04-7.73-7.72-5.45-9.97-11.95-.59-1.7.82-6.54,2.64-6.72,9.59-.93,17.88-1.41,27.58-1.26,1.51.02,3.17,3.7,3.04,5.2-.65,7.58-8.75,4.9-8.73,14.53l.23,105.77c.02,7.9-12.01,5.06-18.99,5.66l-42.06-81.89c-2.02,24.55.17,46.86.31,69.13.02,3.83,9.6,3.21,9.23,9.68-.13,2.21-2.12,5.3-4.94,5.45-8.77.45-17.09.76-25.86.61-1.53-.03-3.29-3.62-3.14-5.08v-.02Z"/>
      <path d="M721.2,614.57c5.75-.53,10.31-4.28,10.36-9.97l.26-26.66c.08-8.25-8.59-4.55-9.53-12.7-.24-2.1,1.83-6.12,4.59-6.22l33.33-1.17c2.02-.07,4.22,3.21,4.43,5.08.77,6.73-7.1,5.69-7.12,11.59l-.1,45.99c0,3.32-5.27,4.83-7.82,4.57-2.8-.28-5.3-2.33-8.05-5.6-14.71,12.03-34.52,12.51-49.38.09-24.67-20.62-23.78-65.11-14.38-92.52,9.45-27.54,39.32-41.13,64.59-27.16,2.52-3.63,5.84-5.35,9.14-4.89s5.86,4.18,5.94,7.85l.45,20.27c.11,4.78-2.04,10.11-4.81,13.79-6,7.97-17.72,8.5-23.92,1.03-.77-.93-1.45-4.06-1.11-5.17.39-1.3,2.7-2.58,4.36-2.96,5.48-1.25,8.17-5.34,6.55-10.91-1.86-6.43-7.86-10.78-13.96-11.34-27.09-2.5-26.85,44.98-26.17,63.41.44,11.99,2.12,23.6,6.54,34.5,2.63,6.48,8.6,9.77,15.79,9.11h.02Z"/>
      <path d="M345.71,641.91c-5.38-2.35-7.21,5.76-13.85,3.58-1.82-.6-4.19-3.98-4.17-6.37l.21-34.1c.02-3.26,5.92-4.08,8.21-3.55,9.11,2.13,2.6,16.08,10.89,24.7,7.44,7.73,22.2,8.57,30.01.91,6.42-6.3,4.3-16.89-.75-23.24-10.43-13.11-27.28-16.31-38.76-29.45-14.11-16.16-12.06-42.37,4.78-55.9,12.09-9.72,28.98-9.57,42.11-3.26,2.48-2.15,4.75-3.83,6.94-4.66,1.77-.67,5.24.7,7.17,2.41.53,11.91.64,23.32-.15,35.52-.12,1.84-4.26,3.47-5.97,3.5-10.36.17-3.92-11.91-13.1-22.61-5.19-6.05-16-7.2-22.27-2.42-5.31,4.05-6.24,10.64-5.46,16.94.64,5.15,4.32,10.61,9.54,14.04l24.02,15.81c16.23,10.68,21.8,29.59,15.41,47.74-8.53,24.24-34.86,29.12-54.79,20.4h-.02Z"/>
      <path d="M648.31,645.76c31.83,7.53,51.82,25.73,82.87,34.09,20.31,5.47,40.69,5.32,60.16-2.65,25.83-10.56,44.77-38.31,33.6-65.18-7.03-16.91-27.37-24.02-42.69-13.69-10.2,6.88-12.67,20.92-7.51,31.59,4.22,8.72,14.97,11.73,22.76,6.54,8.78-5.84,1.19-16.57,6.04-19.2,1.49-.81,4.83.53,5.78,2.47,5.56,11.43-.73,24.79-13.24,28.41s-25.88-2.95-31.34-14.86c-7.22-15.75-1.72-34.12,12.58-43.98,16.32-11.26,38-7.47,50.72,7.67,13.45,16.01,15.35,37.61,6.49,56.76-9.32,20.13-27.32,34.18-49.22,39.6-29,7.18-58.34,1.08-84.13-13.46-30.62-17.26-58.96-34.47-94.92-26.74-11.18,2.4-17.7,9.71-20.1,4.93-3.14-6.26,11.84-11.1,16.69-12.42,15.08-4.1,30.14-3.51,45.48.11h-.02Z"/>
      <path d="M314.71,647.09l-36.59,1.66c-1.76.08-4.03-3.64-3.85-5.29.75-7.12,9.11-6.11,9.09-11.66l-.42-100.53c-.01-3.4-7.09-3.52-8.15-8.83-.34-1.69,1.53-5.94,3.26-6.05l36.09-2.15c1.69-.1,3.68,3.82,3.66,5.46-.1,7.62-8.47,4.54-8.45,13.4l.21,95.86c.02,8.51,6.76,5.63,8.27,11.64.41,1.62-.97,6.4-3.12,6.5h0Z"/>
      <path d="M522.68,635.54c-2.23.1-4.45-3.48-4.37-5.17.33-7.52,9.43-6.16,9.44-12.48l.09-96.69c0-6.37-7.54-5.19-8.88-10.66-.41-1.66,1.32-5.96,3.17-6.07l35.64-2.14c2.3-.14,4.59,3.45,4.54,5.24-.24,8.64-8.41,5.24-8.42,13.42l-.15,95.02c-.01,8.11,8.37,4.83,8.59,12.48.05,1.77-2.19,5.37-4.22,5.46l-35.42,1.6h-.01Z"/>
      <path d="M682.43,486.87c-7.76,1.26,2.21-27.02-50.42-29.88-16.91-.92-33,1.47-49.3,5.85-1.28.34-3.82-.6-4.44-1.58-.72-1.14.58-4.62,2.09-5.1,23.47-7.48,48.03-9.65,72.28-4.85,29.16,5.76,39.38,34,29.79,35.56Z"/>
    </g>
    <g>
      <path d="M511.13,463.18c-38.72,12.73-79.77,25.59-120.03,17.78-14.32-2.78-27.35-9.51-36.36-20.55-10.53-12.9-6.34-29.32-.27-28.22,7.48,1.36-4.44,12.13,6.85,24.69,16.39,18.23,48.37,19.97,71.46,16.94,14.64-1.92,28.5-4.63,42.43-9.57l39.21-13.91c45.12-16.01,89.93-31.86,138.45-27.12,11.7,1.14,22.61,4.1,32.81,9.29,29.3,14.9,28.96,49.16,19.91,48.63-8.21-.48,3.61-13.24-10.34-28.47-6.11-6.67-13.79-11.49-22.67-14.32-29.91-9.55-79.07-2.24-108.79,7.53l-52.66,17.31h0Z"/>
      <path d="M295.76,346.95c-17.24,9.54-34.14,21.31-52.11,29.72,15.31-12.66,34.24-22.24,49.42-33.1.92-.66,3.5-.4,3.74.31s-.32,2.67-1.05,3.07Z"/>
      <rect x="622.82" y="337.78" width="4.1" height="52.32" transform="translate(-18.57 693.94) rotate(-57.37)"/>
      <path d="M284.96,324.29c-12.2,5.04-27.25,12.29-39.89,15.79,3.34-4.1,38.43-18.94,40.26-19.08.65-.05.47,2.95-.37,3.3h0Z"/>
      <path d="M656.07,341.49c-13.05-3.42-24.98-9.53-37.93-13.87-.77-.26-1.88-1.55-2.2-2.23s2.66-2.07,3.42-1.66c11.07,5.96,25.52,9.78,36.7,17.76h.01Z"/>
      <path d="M614.11,397.21c-9.73-6.14-18.33-14.38-27.23-21.02-.63-.47-1.51-2.14-1.46-2.82.06-.86,2.12-1.06,3.45-1.11,7.93,8.81,17.84,14.6,25.24,24.95h0Z"/>
      <path d="M636.3,350.59c-.51,1.34-34.08-12.55-25.96-13.6l2.84-.37c7.58,4.78,15.83,8.07,23.12,13.97Z"/>
      <path d="M617.8,378.3c-8.23-3.16-15.02-9.1-21.57-13.21-.82-.51-1.61-2.79-1.1-3.43s2.5-.65,3.3,0c6.36,5.27,14.15,10.03,19.37,16.63h0Z"/>
      <path d="M282.45,311.44c-9.13,2.69-17.79,6.93-27.68,7.4-4.31.15,36.79-16.22,27.68-7.4Z"/>
      <path d="M593.93,399.81c.05,2.83-28.01-21.22-14.33-16.67l14.33,16.67Z"/>
      <path d="M290.89,332.87c4.04,2.55-17.75,10.98-18.82,9.52,3.21-3.03,16.4-11.05,18.82-9.52Z"/>
      <path d="M510.32,425.1c-.06,6.74,5.02,11.49,2.27,17.14-1.6-2.41-11.2-27.95-2.27-17.14h0Z"/>
      <path d="M638.02,318c.57,1.89-20.53-3.77-16.37-6.06,3.13-1.72,13.93,3.46,16.37,6.06Z"/>
      <path d="M376.82,432.13c-.13.28-1.33,1.4-1.5,1.65-.26.38-1.5-1.6-1.34-2.03l4.17-11.29c.21-.56,1.82-1.43,2.35-1.7s1.6,1.87,1.36,2.41l-5.04,10.98v-.02Z"/>
      <path d="M576.54,404.9c-4.33-1.4-7.4-6.36-10.73-9.74-2.75-10.44,10.84,7.02,10.73,9.74Z"/>
      <path d="M359.95,407.59c-1.24,5.08-3.95,10.19-8.93,12.23l5.22-11.44c.39-.86,3.9-1.59,3.71-.79Z"/>
      <path d="M482.66,427.98c2.11-4.11,4.97,15.12,2.6,15.27-2.58-3.37-4.29-11.98-2.6-15.27Z"/>
      <path d="M530.63,414.48c-5.8-14.52,11.15,10.43,7.07,11.79-3.4-2.14-5.83-8.7-7.07-11.79Z"/>
      <path d="M521.01,418.4c1.75,3.11,4.09,7.91,3.05,12.31-2.37-.28-6.63-11.47-5.35-11.77l2.3-.54Z"/>
      <path d="M563.83,411.98c-4.34-.96-5.88-5.57-8.86-9l-.13-2c-.28-4.4,9.03,7.92,8.98,11h.01Z"/>
      <path d="M543.69,407.26c1.25-3.25,8.51,11.21,6.63,11.92-3.01-1.57-7.94-8.52-6.63-11.92Z"/>
      <path d="M393.65,425.16c-.48,3.82-2.67,9.35-5.39,12.46-3.07-.51,6.7-22.95,5.39-12.46Z"/>
      <path d="M370.23,413.47c3.45-1.21-3.12,11.32-5.65,10.16.28-3.19,1.99-7.03,3.49-9.43.62-.23,1.67-.55,2.17-.73h-.01Z"/>
      <path d="M405.28,429.07c.8,2.05-1.05,8.19-3.33,9.9-2.56-1.38,1.52-14.52,3.33-9.9Z"/>
      <path d="M497.05,426.9l.87,8.21c-3.69-.11-4.01-6.38-3.45-9.38.09-.47,2.53.7,2.58,1.17h0Z"/>
      <path d="M758.71,447.34l-.45,36.79c-3.65.24-5.15-3.08-5.12-6.2l.27-31.66c-8.7-7.42-12.83-17.43-10.45-27.89-8.41.84-18.26-1.46-20.86-9.21-1.57-4.71-1.41-9.63,1.69-13.37,1.3-1.57,4.75-2.38,6.62-1.68s2.55,3.93,3.42,6.8c.8,2.67,6.22,1.03,8.26-1,8.92-8.89,13.4-21,13.11-34l-39.53-.13c-21.94-34.31-49.41-59.24-83.49-81.88-.77-.51-2-2.31-2.44-3.09-.51-.92,1.78-4.01,2.83-3.34,35.5,22.67,62.89,46.99,86.04,82.75h38.48c.45-2.34.44-5.12.08-7.36l-34.57.27c-23.32-34.22-53.57-62.05-89.04-83.73-1.65-4.59-1.93-9.05,1.12-13.69l29.35,18.92c4.35-1.36,9.28-1.45,13.91-.56l2.14-6.98c3.78-1.17,8.66,1.41,11.97,1.24,5.06-.26,9.2-3.27,13.99.96,2.69,2.38,5.2,5.77,7.63,9.7,3.85-2.66,9.15-4.63,13.9-2.11,3.11,1.65,8.75,5.89,6.85,10.66-1.75,4.39-5.41,7.64-3.97,12.54,5.35,18.23,16.17,2.36,38.6,22.87,5.47,5,9.56,11.48,9.58,19.64l.11,57.38,10.82,8.63c.85.68,2.01,2.76,2.11,3.8.12,1.21-2.4,3.78-2.21,5.01.62,7.65,12.58,14.28,6.34,19.23-4.73,3.76-9.43,4.66-16.51,4.26l-.08,72.83c-4.7-3.28-7.77-6.23-11.65-10.03l.06-50.42c0-1.54-1.15-3.9-2.12-5.26-.91-1.28-3.85-2.05-6.79-.69h0ZM698.16,297.84l5.78,5.22c4.85,4.38,9.95,8.97,17.6,7.76-16.44-12.17-9.75-29.62-20.81-36.25-.79-.47-3.03-.42-3.78-.09s-1.44,2.94-1.01,3.95l8.57,19.68c-8.59-2.89-10.34-24.02-19.23-24.03-1.55,2.96-.65,9.31,2.09,10.44,3.79,1.56,5.54,5.39,5.18,9.24-7.89-9.04-8.07-4.27-10.81-9.2-1.99-3.57-4.31-5.77-8.88-5.29,1.01,1.93,2.45,4.24,4.1,5.76l26.01,24.01-4.81-11.2ZM722.4,285.35c-2.07,7.14-2.23,14.36,3.39,19.54-2.06-7.19-.31-12.63,1.96-19.26.83-2.43-5.19-4.62-7.38-3.46s-5.87,3.29-6.63,5.46c-1.11,3.16,1.19,7.89,3.15,9.26,1.53-5.34,1.23-9.63,5.5-11.53h0ZM730.56,323.49c-.13.44.06,1.64.49,1.81,2.57,1,17.69-5.01,32.94,3.52-13.73-17.16-35.18-13.19-53.81-11.07,9.44,4.78,23.96-1.11,31.78,1.9-2.1,3.52-10.69,1.55-11.4,3.85h0ZM743.93,337.35c-.7-.48-1.82-2.32-1.75-3.2l.36-4.58-8.85,1.96c-4.63,1.03-7.05-1.51-9.43-5.03-1.29-1.65-6.09-1.39-8.37-.69l12.64,15.15,36.6-.48c-2.14-3.77-4.65-6.3-7.64-7.81-7.98-4.02-10.19,6.98-13.55,4.67h-.01ZM765.32,381.24c1.95-7.24,2.67-15.08-1.13-21.63-2.09,19.75-8.69,45.66-29.34,51.3,18.32,4.07,26.74-15.83,30.47-29.67h0ZM783.68,411.43c-6-2.99-10.79-7.59-14.62-14-2.71,8.77,2.76,17.14,10.37,18.98l4.25-4.98ZM771.72,416.03c-.73,5.24,3.83,7.1,5.39,12.27-7.9-1.81-11.51-21.4-13.66-29.02-6.62,11.41-2.45,25.78,10.15,32.28,5.01,2.58,10.24,5.31,16.28,1.61-1.7-3.65-4.65-7.55-8.04-9.96l-10.12-7.18h0ZM760.99,436.17l8.11,6.5c2.53-2.68,1.79-6.79-.94-8.8-6.32-4.66-9.73-10.8-12.25-18.35-3.42,7.37,1.34,12.74,2.31,20.08-6.85-3.64-4.28-11.53-8.65-17.06-3.35,8.65.7,17.13,7.44,22.62l3.97-4.98h.01Z"/>
      <g>
        <path d="M355.32,336.5c3.62,22.2,33.47,24.89,53.54,17.33,13.84-5.21,27.11-10.24,41.29-14.68,4.64-1.45,15.97-2.81,19.16,1.32,1.23,1.6,1.7,4.89,2.13,7.66-3.38,15.69-12.93,33.32-26.34,42.5,9.09,7.09,25.67,30.29,17.68,39.63-5.97,6.97-30.6.52-39.49-2.56-37.52-12.97-69.43-29.84-96.82-59.11-21.63-23.11-36.05-51.34-41.37-82.59-3.69-21.67-3.61-42.41,1.05-63.76,3.3-15.1,7.15-29.22,13.81-43.25,12.27-25.87,29.84-47.69,52.02-66.09,24.55-20.36,54.4-33.22,86.21-37.41,30.38-4,60.25.99,88.49,11.89,4.25,1.64,11.99,6.13,11.74,11.1-.3,6.01-20.18,14.82-20.93,34.46,7.26-3.67,26.67-23.57,34.04-20.05,1.13.54,2.82,3.06,2.97,4.45,2.52,22.82-12.61,44.77-26.66,61.54-7.65,9.13-14.67,18.44-24.09,25.89-16.96,13.42-35.28,23.87-55.11,32.7-27.33,12.16-47.56,34.65-56.69,63.3-.62,1.95-3.19,4.54-4.85,4.85s-4.98-.99-6.22-2.44c-5.84-6.83-5.85-14.99-5.37-24.19-16.18,14.37-23.6,36.58-20.18,57.54v-.03ZM372.7,113.56c.32,4.85.19,6.35,2.45,8.84l2.75-11.62,4.78-2.39c-.67,4.38-1.35,6.86,1.34,10.03l3-12.51c24.08-11.92,50.07-16.27,76.2-20.68-42.79-.04-83.77,14.86-116.87,40.95-8.14,6.41-15.16,12.86-21.17,22.31,11.17-10.83,23.24-21.9,37.67-29.33.66,4.25.34,6.24,3.34,8.29l.53-10.27c1.29-1.13,4.77-3.12,5.99-3.61h-.01ZM528.48,98.44c.62-.47-.45-2.92-.95-2.67-9.59,4.86-17.07,16.23-20.22,26.55l-6.76,22.15-4.43,7.72c15.95-.24,7.55-35.22,32.36-53.76h0ZM476.21,113.35c0-6.56-5.32-11.88-11.88-11.88s-11.88,5.32-11.88,11.88,5.32,11.88,11.88,11.88,11.88-5.32,11.88-11.88ZM299.33,248.57c4.99-35.83,21.57-67.56,47.26-92.15,18.37-16.7,38.32-29.74,59.6-42.62-37.36,12.26-67.46,38.7-87.56,71.79-26.97,44.83-33.03,97.6-9.02,144.71-8.76-26.79-13.73-53.1-10.28-81.74h0ZM395.44,148.27c.35-10.25,2.46-18.98,5.41-28.42-7.18,7.85-8.38,19.32-5.41,28.42ZM474.31,127.38c-9.75,3.41-17.65,1.62-24.4-5.13.64,6.32,6.47,8.81,10.78,9.55,5.04.87,10.6-.02,13.63-4.41h-.01ZM487.03,186.69c-4.6,7.76-12.91,8.98-20.5,13.65,11.78,2.72,21.82-8.2,30.57-14.4-3.45,8.74-12.04,11.81-18.94,17.32,5.17.32,12.71,1.35,17.39-1.79,12.1-8.11,21.51-19.15,29.69-31.49-4.86,1.93-7.97,4.42-12.68,5.43,16.66-15.06,34.68-24.1,34.68-50.43-3.88-2.35-32.51,20.75-33.51,21.85-5.79,6.34-10.19,12.98-17.05,18.74-9.9,8.31-21.65,15.07-35.16,12.68-13.89-2.46-24.31-13.28-29.67-26.11-3.47-8.32-3.07-16.53-3.72-25.96-7.42,21.15,1.05,44.92,19.9,55.72,9.42,5.39,19.67,4.21,30.12,2.37-8.02,7.23-17.96,7.66-28.05,8.59,11.33,9.3,26.2-.67,36.92-6.16h.01ZM463.82,205.33c-16.8-4.35-31.44-9.33-42.17-21.74-13.28-15.37-17.33-34.25-17.01-55.47-4.58,8.46-4.31,18.23-4.15,27.62.25,15.12,6.04,28.45,16.9,38.82,11.95,11.41,30.14,17.78,46.43,10.78h0ZM448.86,158.82l-4.93-26.58c-.9,9.57,1.37,18.63,4.93,26.58ZM309.97,189.46c8.42-17.15,21.38-33.96,33.74-46.72.84-.87,1.36-2.55,1.61-3.1s-2.1-2.08-2.79-1.5c-22.14,18.76-41.46,56.22-45.5,85.97,4.22-11.61,7.74-22.5,12.93-34.66h.01ZM462.81,159.05l-6.4-20.25c-.94.7,3.16,19.82,6.4,20.25ZM472.76,161.08l-8.75-20.1c.77,7.18,3.52,14.44,8.75,20.1ZM454.92,163.8l-4.46-17.99c-1.16,6.73.92,13.15,4.46,17.99ZM362.15,162.85l17.33-13.26c-4.88,1.46-8.28,3.31-12.29,5.95-34.87,22.98-59.27,61.2-62.12,103.68,8.53-37.41,26.03-72.61,57.07-96.36h.01ZM363.17,372.31c-25.75-30.54-18.7-75.46,9.81-101.24,8.05-7.28,16.79-13.65,26.7-18.37l43.95-20.93c10.94-5.21,21.27-10.27,31.11-17.49-2.78-1.52-4.76.07-7.05,1.4-12.77,7.46-25.33,14.39-39.66,18.12,11.46-6.13,23.19-11.32,34.4-19.61-21.62-1.01-30.58,0-47.41-14.29-3.38,5.14.32,10.27,3.94,14.61-11.06,16.62-32.43,33.95-52.91,20.32-18.56-12.36-31.66-6.11-34.49-12.92-4.15-10,16.65-18.94,24.49-21.85,17.01-6.32,34.46-5.81,53.27-5.31-10.65-12.68-14.71-25.99-15.4-41.71-6.33,1.69-11.34,4.62-16.03,8.94.59,4.52,2.49,7.36,5.62,10.88-5.68,1.25-7.63-3.05-9.05-8.25-2.73,1.12-7.49,3.74-9.19,6.7-2.68,4.66,2.57,9.31,6.48,12.81-5.96,1.73-9.44-3.02-10.55-9.35-3.88,3-9.04,6.81-10.74,11.28-1.5,3.94,2.59,7.82,4.45,11.18-.94.76-4.76-.03-5.48-1.31l-3.4-6.02c-20.1,24.71-31.34,53.96-34.76,85.21-4.49,41.03,10.26,86.27,46.41,109.08,8.62,5.44,18.64,13.54,28.96,13.5,8.46-.03,12.86-14.28,10.65-20.76-2.69-7.88-9.43-12.38-17.97-12.41l9.72,7.56c-3.36-.56-6.92-1.69-9.52-3.5l-20.62-14.35c2.88,11.76,10.32,19.07,17.42,27.86-5.61-1.38-9.36-5.28-13.16-9.79h0ZM439.85,182.07c-8.39-9.38-14.24-18.13-17.61-28.86.34,12.57,8.11,22.83,17.61,28.86h0ZM399.65,213.49c-10.51,2.24-19.3,6.64-28.87,11.31-.88.43-3.18.55-4.27.37,9.52-8.03,21.16-11.38,32.61-16-3.21-.19-7.1-.12-10.07.79l-33.23,10.2c10.28-7.93,22.35-10.41,35.08-14.61-16.1.26-31.34,5.94-47.99,11.48,16.87-12.81,35.64-13.67,55.55-16.99-17.77-2.24-34.72,1.62-50.48,8.96-1.91.89-14.27,8.41-11.57,10.19,3.41,2.24,18.16.87,31.93,10.41,15.15,10.5,30.06,1.93,41.22-10.9l-21.98,12.45c4.3-7.45,12.76-9.14,17.8-15.78-11.2,3.53-18.68,12.2-29.75,14.23,7.99-6.63,16.19-10.73,24-16.12h.02ZM383.32,284.92c-.18-8.1,6.52-12.05,8.2-19.29-11.64,4.33-15.68,30.15-4.83,34.39,5.72-16.09,13.17-29.47,24.53-42.73-12.11,8.2-18.89,21.54-24.86,34.91-2.01-7.9,11.11-24.37,14.59-31.29-7.89,6.77-12.35,15.65-17.64,24.02h0ZM425.03,368.75c6.38,1.29,19.85-5.11,23.82-1.8-12.87,4.52-25.94,6.07-40.22,9.63l32.77.83c-12.63,4.3-24.64.79-36.81,4.15,12.29,1.88,23.45,3.49,35.61,3.39,11.82-1.06,28.91-35.91,24.95-40.55-2.7-3.16-19.02,1.07-23.07,2.74l-26.79,11.04c-5.34,2.2-10.22,4.35-15.03,7.21,15.73-.86,39.56-18.16,57.3-18.53l-16.78,7.06-33.93,15.16c14.4-1.81,30.69-11.59,45.98-12.88l-27.79,12.54h-.01ZM452.01,424.51c-18.16.42-38.47-12.4-55.37-22.34,3.33,7.18,25.71,17.67,33.3,20.84,8.23,3.45,16.55,4.83,25.54,4.59,11.43-.31-6.68-31.43-18.37-33.26l-33.18-5.22c8.45,6.13,25.16,7.69,35.37,12.44-8.96,1.7-20.81-4.32-29.51-4.21,11.94,6.64,24.44,10.31,37.3,14.37-14.66,1.63-33.91-8.3-47.43-14.95,5.4,6.63,12.95,9.64,19.98,13.78,10.19,6,20.5,10,32.38,13.97h-.01Z"/>
        <path d="M469.52,401.97c15.04-1.07,27.61-3.82,40.97-9.49,42.38-18,74.51-54.54,86.88-99.01,13.19-47.4,1.58-100.89-32.06-136.69-2.59-2.76-5.32-5.67-7.6-8.73l6.39-19.74c11.79,8.56,19.39,19.02,27.54,30.1,27.08,36.86,36.25,82.01,27.83,126.99-7.17,38.31-27,73.04-57.1,97.96-25.59,21.18-55.79,34.36-89.12,37.02l-6.6-14.45c-.48-1.04,1.46-3.85,2.88-3.95h-.01ZM606.75,312.39c9.84-25.88,14.96-66.47,5.16-91.55,3.82,20.19,4.06,38.9.7,58.73-8.94,52.87-41.7,95.53-88.79,120.65,38.87-15.57,68.07-48.74,82.93-87.83Z"/>
        <path d="M486.36,275.64l34.58,40.26c1.19,1.39.73,5.07-.44,6.06s-4.71.83-6.14-.49l-49.73-45.63c-8.29.58-15.5-3.11-19.1-9.88-3.79-7.15-2.29-15.77,3.01-20.94,6.28-6.12,13.99-7.78,22.84-3.3l95.17-51.42c1.4-.76,3.78,1.98,3.91,3.03.15,1.23-.02,3.92-1.36,4.82l-87.41,58.65c-2.24,1.5-3.78,8.43-2.24,10.65,1.83,2.63,4.79,5.73,6.9,8.19h.01ZM469.01,257.81c0-4.21-3.41-7.62-7.62-7.62s-7.62,3.41-7.62,7.62,3.41,7.62,7.62,7.62,7.62-3.41,7.62-7.62Z"/>
        <path d="M266.84,222.02c-4.17-24.54-3.01-62.73,11.05-84.2,6.44-9.83,46.4-23.78,61.04-22.69-41.97,38.39-58.16,76.81-63.27,133.83-5.57-8.24-7.23-17.54-8.83-26.94h0ZM314.86,133.98c-7.8-3.08-14.18,2.5-21.96,1.3,8.77-3.15,17.4-5.9,27.02-8.6,1.25-.35,2.5-1.88,2.6-3.29-9.7,1.47-39.58,9.42-41.14,20.48l33.48-9.89h0ZM276.54,154.73c9.59-4.15,19.37-8.04,28.3-10.81.71-.22,2.2-1.94,1.63-2.06-.43-.09-1.99-.4-2.5-.32l-23.52,3.56c-2.2,2.33-3.94,6.64-3.92,9.63h.01ZM297.79,158.08c-7.48-1.94-11.9,4.24-18.91,3.07,5.73-5.48,19.78-7.18,21.37-10.82-9.76.48-17.46,3.87-25.69,8.13-1,3.85-1.78,8.16-2.16,12.08l25.4-12.47h0ZM271.08,180.87l21.48-14.3c-7.7-.83-13.56,3.93-20.67,6.51-.42,2.29-.72,5.3-.81,7.8h0ZM270.48,191.02l17.66-14.87c-6.42.4-10.19,3.87-15.33,6.71-2.83,1.57-3.86,5.26-2.33,8.16h0ZM269.81,200.27c5.21-4.88,9.4-8.35,13.5-14.29-4.75,1.36-17.58,8.59-13.5,14.29ZM270.3,208.92l8.02-8.73c.73-.79,1.06-2.96.99-4.28l-7.64,5.94c-1.88,1.46-2.59,4.71-1.36,7.07h0ZM273.03,226.87l3.72-19.86c-2.7,2.15-4.91,4.15-6.67,6,.42,5.16,1.07,9.32,2.95,13.86Z"/>
        <path d="M590.72,266.79l-23.83-.02c-2.12,0-3.97-4.26-3.59-6.06.5-2.31,2.87-4.72,5.46-4.68l21.16.31c1.78.03,3.7,2.88,4,4.33.34,1.63-1.28,6.13-3.21,6.13h.01Z"/>
        <path d="M553.29,346.98c1.26,1.48.44,5.66-1,6.98-5.13,4.67-11.37-3.7-14.65-7.74-1.75-2.16-1.29-6.19.41-7.84,1.96-1.91,6.43-1.73,8.14.28l7.1,8.32h0Z"/>
        <path d="M318.18,377.34l-36.93,33.02c8.6-13.27,24.11-24.29,33.85-35.66.67-.78,2.83-.92,3.52-.82s.36,2.74-.44,3.45h0Z"/>
        <path d="M329.07,384.6c-10.39,10.95-19.7,21.01-31.37,30.54,7.14-12.72,18.52-20.3,26.94-31.64.7-.94,5.27.22,4.44,1.1h-.01Z"/>
        <path d="M274.2,375.34c-.42.27-2.54.94-2.49.64,0-.04-.23-1.62,1.16-2.61l27.07-19.23c.75-.53,3.05-.95,3.21-.23s-.38,2.97-1.3,3.56l-27.65,17.88h0Z"/>
        <path d="M311.04,364.53c.34,3.25-19.93,17.42-23.22,17.94,1.66-2.73,22.72-22.67,23.22-17.94Z"/>
        <path d="M338.56,392.29c3.95-.16-14.67,19.71-17.25,20.78,2.77-6.85,10.18-14.43,14.17-19.72.46-.62,2.51-1.03,3.08-1.05h0Z"/>
        <path d="M347.02,400.09c7.02-.69-6.15,13.71-7.87,13.32.94-5.28,4.89-9.51,7.87-13.32Z"/>
        <path d="M145.23,446.61c-2.4-1.24-4.49-2.58-5.82-2.88-3.32-.75-3.75,7.22-5.12,8.18-2.12,1.47-6.65,3.37-10.49,4.44l-1.14-18.69c-8.23,1.31-16.16-.69-19.76-7.44l10.17-14.68c-1.53-2.11-2.89-3.9-3.31-5.17s1.42-4.14,2.54-5.03l10.68-8.5-.02-51.96c0-2.49,1.06-6.98,1.75-9.45,1.85-6.65,6.84-12.3,12.07-16.36,19.4-15.04,28.61-1.76,33.95-19.03,1.52-4.92-1.96-9.08-3.51-13.14-1.82-4.76,3.43-8.97,6.78-10.52,4.47-2.06,9.11-.32,13.93,2.05l6.01-7.29c4.35-5.28,9.84-4.62,15.34-2.3,3.32-.75,8.52-2.23,12.26-1.31.71,1.67,1.26,4.38,1.72,6.95,4.82-1.52,10.63-1.58,15.57.08,9.3-6.43,18.92-13.18,29.16-19.25,3.25,3.26,3.58,9.05,2.01,12.95-35.57,21.51-65.94,49.31-89.82,84.33l-35.39.21c-1.38,1.23-1.37,4.7-.52,7.31l39.42.07c23.98-36.67,52.97-62.62,89.32-84.8,1.02.35,2.56,1.67,2.67,2.5.14.99-1,3.33-2.02,3.94-33.27,19.94-61.61,46.18-83.22,78.45-1.21,1.81-3.25,5.64-5.34,5.63l-38.1-.16c-3.21,11.52,9.36,37.21,19.57,34.47,1.5-.4,1.57-3.86,1.97-6.11.25-1.4,3.55-2.85,4.93-2.52s4.03,1.79,4.87,3.04c3.15,4.67,2.48,9.97-.3,14.77-1.99,3.44-6.87,6.51-11.91,6.6l-7.6.14c2.34,9.9-1.9,19.02-8.5,25.69-1.25,1.26-3.42,5.49-4.77,4.79h-.03ZM217.98,285.34c-3.57,2.54-6.21,4.98-9.86,8.51.8-13.25,10.85-4.32,8.15-20.08-9.84,1.87-12.03,21.25-19.55,24.56l9.06-20.39c.4-.91-.57-3.59-1.54-3.84-5.5-1.39-9.29,7.91-10.12,11.9-2.09,9.94-6.74,17.22-13.37,24.82,9.8,1.21,15.91-8.63,21.95-13.48.98,5.56-5,6.06-4.64,11.64l24.49-21.41c2.45-2.14,4.68-5.15,6.46-7.74-5.88-2.36-7.36,2.89-11.02,5.5h-.01ZM178.66,284.09c5.9,2.5,4.3,8.27,5.62,13.76,3.01-3.43,4.17-7.89,3.78-12.43l-8.94-3.6c-1-.4-3.84.67-4.56,1.41-3.04,3.16,4.58,8.1.98,21.24,5.98-5.32,5.13-12.91,3.12-20.39h0ZM169.3,321.48c-2.72-.2-6.46.21-9.01-2.31,8.61-2.84,21.71,3.01,29.93-1.82l-19.7-1.86c-11.99-1.13-24.52,3.36-32.82,12.35l9.09-3.17c9.81-3.42,28.87,2.83,24.62-1.2l-2.12-2h0ZM142.71,332.63c-2.87,1.66-5.17,4.56-6.3,7.84l37.28.29,12.21-15.06c-11.01-4.42-8.85,7.02-14.66,5.94-3.7-.68-13.33-3.32-13.06-2.2l.59,2.45c.31,1.27.18,3.79-.68,4.63-4.14,4.05-6.8-8.84-15.38-3.88h0ZM167.05,408.64c-6.89-1.91-12.31-4.83-16.29-10.44-8.76-11.54-12.79-25.24-14.23-39.32-8.06,14.23,8.73,58.21,30.51,49.76h0ZM121.77,413.74c7.41-1.64,13.37-9.9,10.65-18.09-4.1,5.61-9.21,9.71-14.45,13.35,0,0,3.8,4.74,3.8,4.74ZM130.98,412.97c-9,3.74-15.48,9.91-19.46,17.68,9.44,3.36,18.77-1.63,23.79-8.07,5.57-7.13,6.53-17.34,2.1-25.05l-3.87,13.85c-1.7,6.11-2.66,12.72-10.54,14.67,3.49-4.5,6.57-8.01,7.98-13.09h0ZM132.05,440.35l7.56-6.81c5.82-5.25,8.87-14.49,5.94-21.95-2.8,7.28-4.48,13.46-10.42,17.37-3.78,2.49-5.51,6.99-3.08,11.39ZM150.86,416.51c-1.56,6.77-3.63,13.64-8.41,17.91-.62.56-.51,2.98.24,3.37,5.15,2.66,13.92-13.41,8.16-21.28h0Z"/>
        <path d="M390.41,177.43c-1.02,3.93,1.2,7.45,3.67,11.61-2.77.11-5.85-1.95-6.13-3.85-.38-2.5.46-5.56,1.18-8.05-4.12-3.2-6.46-9.98-1.73-13.46-.18,11.48,10.63,13.82,3.02,13.76h0Z"/>
        <path d="M342.57,244.78c-1.08.72-4.59.93-6.05.21-5.42-2.66-1.86-5.58-7.99-14.57,8.06-.82,2.84,9.59,14.04,14.35h0Z"/>
        <path d="M350.75,235.02l6.52,2.13c-1.49,2.28-5.8,2.55-8.6.94-1.98-1.14-3.98-4.41-2.4-7.96l4.49,4.9h0Z"/>
        <path d="M383.37,187.15c-2.81,1.31-6.46.26-8.04-1.94-1.95-2.72-2.11-6.91.9-9.58.61,5.32,1.99,8.36,7.14,11.52Z"/>
        <path d="M334.09,259.91c-1.27,1.78-5.15,1.68-7.4-.1-2.03-1.61-3.01-5.38-2.03-8.04,3.26,3.99,4.97,5.85,9.43,8.14Z"/>
        <path d="M331.96,247.63c-1.21,1.54-5.55,1.51-7.85-.06-2.05-1.4-3.05-5.36-1.32-7.04,2.13,3.79,4.2,5,9.17,7.1h0Z"/>
        <path d="M327.53,290.26c-.33,1.49-3.75,2.84-5.61,2.29-3.09-.91-4.54-4.31-3.51-6.4,3.55,2.03,5.57,2.96,9.13,4.11h-.01Z"/>
        <path d="M332.3,278.65c-1.4.76-4.98,1.38-7.06.69s-3.42-4.79-2.93-6.61c3.85,2.77,5.56,3.76,9.99,5.92h0Z"/>
        <path d="M326.91,265.88c-.66,2.15-4.07,3.09-7,1.89-1.78-.73-3.63-3.67-3.25-6.42,3.69,2.71,5.92,4.33,10.24,4.53h.01Z"/>
        <path d="M345.55,259.87c-.93,1.07-4.61.98-6.51-.34-2.1-1.46-2.59-5.53-1.34-7.04,2.39,3.3,3.99,4.74,7.85,7.38Z"/>
        <path d="M346.62,242.92l8.02,7.74c-1.38.61-4.89.44-6.54-1.11s-2.29-4.94-1.47-6.63h0Z"/>
        <path d="M365.35,192.9c-1.71.11-5.19-1.36-5.87-3.02-.81-1.96-.2-5.81.78-7.02l5.09,10.04h0Z"/>
        <path d="M323.54,281.18c-1.61,1.21-3.74,1.89-5.96,1.78-1.72-.08-3.45-1.84-4.03-4.78l10,3h-.01Z"/>
        <path d="M337.26,270.27c-1.91.66-4.2.63-6.03-.8-1.32-1.03-2.06-3.9-.99-5.46l7.02,6.26h0Z"/>
        <path d="M325.32,304.36c-1.15,1.28-3.58,2.12-5.75,1.81-1.67-.24-3.6-2.77-3.66-4.54l9.42,2.73h-.01Z"/>
        <path d="M488.88,201.02l17.97-16.76c-2.67,7.71-9.14,15.02-17.97,16.76Z"/>
        <circle cx="464.45" cy="113.36" r="6.67"/>
      </g>
    </g>
  </g>
  <g>
    <path d="M278.03,946.61c-8.1-4.45-14.71-9.66-22.82-12.74-37.42-14.19-48.6-17.33-74.46-51.22-6.11,6.13-13.81,8.5-22.14,5.45-6.28-2.31-11.92-9.14-12.56-17.12s2.63-12.83,6.79-20.7l-24.07-.91c-3.36-.13-5.34-2.84-5.35-6.45l-.2-87.9c-7.11-2.41-19.21-17.61-14.58-20.92,1.81-1.29,13.5.58,13.91-4.96l.83-11.13c3.17-.64,8.99-1.55,11.55-.06l8.55,4.99,1.13-6.64c.15-.9,2.93-1.3,3.78-.94,2.81,1.17-.07,10.55,2.07,15.26,2.74,6.01,10.81,10.13,9.23,23.72,9.24-2.7,16.52.79,20.46,8.62,2.82,5.61,4.4,11.79-.27,17.08-1.52,1.72-4.9,2.82-7.2,1.96-1.77-.67-2.45-4.29-3.3-6.71-1.95-2.44-7.76-.51-10.27,1.91-15.22,14.64-11.92,27.22-12.2,48.04l26.09.05c2.4,0,4.95,2.32,6.44,4.38,13.37,18.52,27.63,36.12,46.72,50.18-1.87-10.79-3.33-19.43,1.33-28.16s15.09-13.21,24.17-8.09c7.22,4.07,10.25,13.13,8.02,21.21-3.04,11.04.44,21.91,11.46,27.24l1.48-4.85c.36-1.2,1.83-3.08,2.94-3.35,8.22-2.02,4.12,24.3,52.03,20.72l39.2-2.93c22.53-1.68,47.38,2.14,66.04,15.65,7.41,5.36,12.18,13.01,17.5,20.64,3.93-5.71,7.35-11.69,12.33-16.23,10.55-9.62,23.6-15.75,37.74-18.17,9.77-1.67,19.62-2.88,29.51-2.06l46.09,3.84c8.79.73,16.92-.46,25.07-3.24,17.09-5.83,16.03-17.59,21.49-17.9,1.26-.07,3.58,1.66,4.15,2.89l2.17,4.66c7.59-4.18,13.34-13.06,11.24-21.83s-2.32-17.65,4.76-24.08c3.89-3.54,9.23-4.61,14.99-3.43,4.21.86,8.52,4.78,11.42,9.48,5.2,8.4,2.87,17.25,1.46,28.42,20.18-15.47,36.27-34.36,50.15-54.92l29.44-.33.34-26.12c.19-14.61-15.25-27.79-20.84-24.23-1.03.66-1.18,3.4-1.46,5.26-.21,1.38-3.46,2.94-4.81,2.51s-3.67-1.99-4.58-3.13c-4.38-5.48-1.74-11.18.44-16.76,3.16-8.08,10.92-11.19,19.98-7.56-.82-9.9,2.83-17.41,9.92-23.69l.4-17.3c.02-1.02,1.77-2.98,2.72-2.96s2.12,1.87,2.17,2.87l.45,10,8.02-5.21.59-7.19c3.72-.79,7.94-.96,11.8-.37l.29,19.04c6.11,5.89,13.4,1.48,15.23,4.35,2.83,4.44-8.98,18.72-15.66,21.24l-.38,89.15c0,1.91-2.06,4.2-3.84,4.28l-22.96.93c-.8.03-3.06.72-3.01,1.42s.6,2.54,1.2,3.36c6.5,8.75,6.29,22.02-2.61,29.75-13.18,11.44-25.34-1.6-27.14-.74-2.84,1.36-12.37,16.98-24.51,26.18-13.47,10.21-28.65,15.86-44.44,21.6-8.96,3.26-16.41,8.54-24.76,13.28-23.89,13.58-48.58,24.56-74.67,34.17,2.32,22.72-6.94,42.43-28.66,50.47-3.55,1.31-25.21,6.92-24.41-.18.72-6.35,14.39.53,30.18-10.91,11.71-8.49,17.91-21.88,14.68-36.43-14.47,4.61-28.05,9.79-41.69,16.02-3.25,1.48-6.02,3.36-9.34,6.09,7.61,4.31,15.86,3.64,23.72,4.32,1.45.13,2.5,3.51,1.86,4.6-3.45,5.83-15.39-.15-22.82.68-5.96.66-9.12,10.63-9.39,15.59-.75,13.62,11.99,16.24,10.66,22.04s-14.73-2.08-17.55-18.72c-1.22-7.21,2.12-14.94,6.53-20.62.38-.49-1.69-2.39-2.2-2.05-5.07,3.34-16.96,14.01-16.91,18.44.06,5.02,18.72,15.3,15.26,37.43-5.63.88-10.06-1.32-15.51-3.86,2.29,13.47-3.23,25.58-14.29,33.04-11.53-10.69-15.22-18.65-13.37-33.35-6.17,2.83-10.16,4.89-16.05,4.01-1.63-12.42,3.37-24,12.76-32.2,1.19-1.04,2.61-3.67,3.05-5.4-2-3.73-16.8-22.26-21.33-17.03,1.72,2.76,3.51,4.97,4.87,7.64,9.48,18.63-9.48,39.12-13.96,33.17-4.2-5.58,10.17-8.83,9.62-22.61-.21-5.19-3.72-16.02-9.96-15.63l-18.89,1.19c-1.08.07-3.09-1.78-3.63-2.71s.74-3.62,1.92-3.73c2.29-.22,24.99-1.55,23.13-4.95-2.96-5.43-41.49-18.56-50.37-21.09-2.75,15.18,4.86,30.65,18.14,38.2,14.07,8,25.87,3.41,26.44,8.84.73,6.96-25.06,3.03-37.36-7.75s-16.55-26.37-15.22-42.51c-25.24-9.3-48.66-19.68-72.11-32.56v-.03ZM143.87,736.13c.19-.74.5-1.48,1.23-3.37-1.87-2.7-4.72-5.19-8.02-7.2-5.14,15.41,10.73,9.06,15.56,30.04,5.69-15.53-9.06-18.3-8.77-19.47h0ZM748.75,755.87c1.84-7.5,5.3-13.52,11.68-17.38,4.42-2.67,6.96-8.23,3.63-13.26-10.48,6.93-6.68,11.25-7.73,11.79l-3.11,1.6c-5.78,2.98-8.09,11.27-4.48,17.25h0ZM128.66,742.62l-2.53-1.16c-.25-.12.96-1.28,1.38-1.22,5.43.72,12.49,5.24,18.03,8.3-2.36-6.88-9.63-11.74-16.59-12.7-4.19-.58-9.18,2.29-12.78,4.01,6.19,13.29,16.67,9.73,27.21,16.24-1.55-7.03-7.98-10.36-14.72-13.46h0ZM757.88,756.4c11.48-6.45,20.7-3.65,27.37-16.78-6.34-3.01-11.88-4.88-18.04-2.4-4.4,1.76-10.19,5.54-10.96,11.62,5.17-3.63,13.14-9.79,18.69-8.22,4.07,1.15-15.77,3.48-17.05,15.78h-.01ZM176.37,770.33c-.43-8.89-14.47-5.38-19.75-3.93,2.51-3.43,6.79-4.43,11.02-6.31-17.73-7.6-38.13,40.79-30.78,53.81,2.18-10.46,4.15-20.06,8.92-29.3,5.55-10.73,16.58-22.03,30.58-14.28h0ZM760.53,798.96l3.32,15.18c6.51-12.58-6.64-38.5-14.71-48.12-4.05-4.83-10.71-7.98-16.75-6.02,4.56,2.69,9.71,2.78,12.06,6.97-5.3-2.52-20.07-5-19.35,3,18.26-8.22,31.94,13.03,35.43,28.99h0ZM141.09,769.68c1.51-5.26-1.38-9.14-5.88-9.56l.17,18.29c2.75-2.48,4.71-5.23,5.72-8.73h0ZM765.48,778.85c.6-7.4.49-13.02,0-19.33-4.87,1.22-6.24,5.36-5.62,9.57.55,3.76,2.28,7.2,5.62,9.76ZM354.01,968c1.41-2.46,2.19-4.35,2.39-6.52-49.15-18.37-89.8-39.79-130.42-73.33-20.15-16.64-37.3-35.1-52.53-56.88l-33.63-.35c-2.15-.02-4.27,1.78-4.31,3.61-.04,2.27,2,3.56,4.42,3.57l29.96.15c10.34,12.97,19.84,25.61,31.83,37.04s24.18,22.27,37.79,32.28c29.93,22.01,62.06,39.57,96.5,53.27l17.99,7.16h.01ZM721.46,848.44l8.03-10.23,31.69.19c1.92.01,4-2.06,3.93-3.7-.05-1.18-1.8-3.61-3.06-3.6l-36.32.06c-17.97,25.45-39.38,47.08-64.14,66.39-38.06,29.69-72.32,46.36-117.07,64.16-1.6.64.93,6.58,2.77,5.9,66.09-24.5,130.34-63.34,174.15-119.16h.02ZM279.46,898.17c-2.1,2.06-4.12,3.32-6.16,2.66-13.96-4.54-23.98-18.18-21.44-32.85.88-5.08,2.83-10.14-.13-14.66-2.52-3.83-7.29-4.75-11.49-3.63-3.61.96-6.97,4.35-8.01,8.78-6.88,29.19,31.37,54.92,57.8,49.5-3.32-4.25-7.19-7.39-10.57-9.8h0ZM610.65,908.32c24.03,2.72,46.01-10.68,54.71-31.91,4.24-10.33,2.63-24.03-6.79-26.54-3.65-.97-8.48-.34-10.84,2.8-3.26,4.34-2.18,9.65-.99,14.7,3.6,15.26-7.99,30.5-22.47,33.98-1.2.29-3.64-2.29-4.39-3.23-3.49,2.62-7.19,5.48-9.23,10.19h0ZM163.38,872.01c-1.3-.54-1.79-3.96-1.09-4.86,4.03-5.16,6.59-2.06,12.35-3.37l-9.04-11.67c-5.25,3.08-9.11,7.93-10.45,13.84-1.64,7.21,2.71,13.96,9.95,15.07,4.41.68,11-3.07,9.62-7.68s-7.37-2.98-11.33-1.33h-.01ZM724.44,874.54c.21,3.98,5.31,6.48,8.03,6.53,3.62.07,7-1.53,9.15-4.54,6.2-8.67-.54-18.61-7.88-24.59-3.86,4.22-6.66,7.88-9.19,12.47,5.52-.72,10.29-.97,12.38,3.55.42.91.46,3.65-.42,3.89-1.53.44-12.46-4.67-12.08,2.68h0ZM708.04,884.28c.08-.97-1.68-1.29-2.45-.59l-26.56,24.14c-.44.4-.97,1.94-1.11,2.48s2.16.31,2.87-.05c10.34-5.16,21.14-14.42,27.25-25.98ZM222.03,909.31l-29.6-26.17c-3.36,4.32,26.72,32.32,29.6,26.17ZM424.52,960.92c-14.74-16.87-41.38-18.42-56.02-1.09,18.87,6.91,36.63,12.82,53.03,22.74l12.19,7.37c16.84-15.45,17.84-40.14,3.96-57.76-18.24-23.15-51.05-25.56-78.71-22.88l-46.37,4.49-35.15,3.1c27.69,18.54,53.83,28.99,83.34,40.11,7.26-7.16,14.78-13.29,24.49-15.39,30.32-6.57,52.12,18.35,44.78,21.18-1.5.58-4.13-.26-5.54-1.87h0ZM475.29,961.72c-1.13,1.47-4.91,1.15-5.49-.04-.5-1.02-.47-3.83.27-4.78,8.7-11.13,21.76-16.78,35.34-16.68,13.32.1,24.97,6.6,34.38,17.06,28.92-10.94,56.36-22.26,82.36-40.16l-33.14-3.1-48.23-4.64c-22.42-2.16-47.34-.98-66.4,11.95-22.22,15.06-28.48,48.55-7.95,68.06l16.58-9.3c15.36-8.62,31.82-13.95,48.49-20.49-15.62-17.32-42.21-16.04-56.21,2.11h0ZM427.69,993.08c-11.46-7.49-22.67-13.51-34.83-18.02l-27.68-10.26c-1.86-.05-4.45,5.69-2.73,6.28,20.54,7.03,40.14,13.77,58.32,25.07,1.62,1.01,3.73,1.66,4.95,1.29,1.05-.32,3.02-3.67,1.97-4.36ZM477.04,997.59c7.4-3.97,13.89-8.07,21.13-11.35,13.23-6.01,26.83-10.74,40.33-15.61.87-1.96-2.12-6.36-4.24-5.63-21.47,7.42-44.01,15.66-62.15,28.67.85,1.76,3.63,4.61,4.93,3.91h0ZM450.47,1005.58l10.05-11.31-10.16-14-10.57,14.56c2.95,3.68,6.7,7.55,10.68,10.75h0ZM465.04,999.58c-8.26,6.3-12.77,15.38-15.31,14.07-3.32-1.71-8.77-10.98-14.74-14.63-1.86.96-4.05,2.61-4.93,3.68l20.44,23.94c6.29-9.27,12.52-16.37,19.73-23.45-.11-1.38-3.88-4.61-5.2-3.61h0ZM443.34,1038.9c-5.63,3.75-4.74,9.58-10.32,12.06l5.67-13.35c-7.56,4.98-11.04,13.27-10.44,21.29,9.99-2.09,16.05-10.82,15.09-20h0ZM457.84,1039.1c-.33,10.02,6.05,17.83,15.38,19.9-.23-8.11-3.51-16-10.44-20.49l5.02,12.11c-4.77-1.31-5.66-9.31-9.95-11.53h0ZM453.66,1049.07c-3.02,9.31,1.03,16.35-2.86,24.99-3.13-7.23.35-20.52-3-25.83-6.41,10.63-6.57,28.42,3.02,37.61,9.96-9.24,9.58-25.98,2.85-36.78h-.01Z"/>
    <path d="M387.61,796.6c2.17,0,3.12,4.42,2.55,5.7-.64,1.46-2.89,3.49-5.07,3.46l-54.17-.58-103.58-.31c-4.27,8.83-12.43,13.05-20.94,10.27-8.16-2.67-13.29-11.02-10.55-19.85,2.48-7.96,11.05-14.36,19.92-11,5.37,2.04,8.71,6.3,11.77,11.9l160.08.41h-.01ZM219.25,800.05c0-4.31-3.5-7.81-7.81-7.81s-7.81,3.5-7.81,7.81,3.5,7.81,7.81,7.81,7.81-3.5,7.81-7.81Z"/>
    <path d="M590.5,804.93l-74.53.48c-1.88.01-4.33-2.61-4.61-4.06-.36-1.85,1.43-4.96,4.05-4.97l154.28-.32,4.78-6.44c6.04-8.15,16.88-7.7,23.64-.73,7,7.22,5.92,18.33-1.91,23.95s-18.8,3.98-23.92-5.14c-.8-1.43-3.45-2.98-5.21-2.97l-76.56.2h-.01ZM694.17,800.08c0-4.26-3.45-7.71-7.71-7.71s-7.71,3.45-7.71,7.71,3.45,7.71,7.71,7.71,7.71-3.45,7.71-7.71Z"/>
    <path d="M590,821.66l-64.93-.05c-1.64,0-3.56-1.91-3.75-3.23-.23-1.66,1.79-4.18,3.78-4.18l74.43-.2c-.55,6.05-5.09,7.68-9.52,7.67h-.01Z"/>
    <path d="M464.56,901.34c0,7.78-6.3,14.08-14.08,14.08s-14.08-6.3-14.08-14.08,6.3-14.08,14.08-14.08,14.08,6.3,14.08,14.08ZM457,901.28c0-3.64-2.95-6.6-6.6-6.6s-6.6,2.95-6.6,6.6,2.95,6.6,6.6,6.6,6.6-2.95,6.6-6.6Z"/>
    <circle cx="475.5" cy="899.46" r="5.97"/>
    <circle cx="425.49" cy="899.56" r="5.81"/>
    <g>
      <path d="M459.96,849.98c1.31,7.24-6.03,23.61-9.44,23.33-4.3-.35-11.18-15.36-8.06-23.55-11.56,8.11-25.16,10.07-36.77,3.61-15.85-8.83-20.51-28.66-12.24-43.48,8.98-16.08,27.59-21.64,44.79-12.94l9.6-14.04c.53-.78,2.01-1.97,2.76-2.16.93-.24,2.62,1.31,3.19,2.17l9.44,14.33c16.43-8.77,35.31-3.42,44.41,11.71s4.06,35.34-12.27,44.65c-11,6.27-25.04,4.38-35.41-3.63h0ZM450.84,807.16c1.98-1.5,5.58-4.91,4.93-6.8-.97-2.82-3.42-5.67-5.33-7.62-2.11,2.59-4.64,5.53-4.38,8.18.23,2.28,3.02,4.9,4.78,6.23h0ZM472.81,848.63c11.53,3.58,23.14-1.42,28.5-10.76s4.66-21.7-3.44-29.85c-6.22-6.26-15.46-8.68-24.51-6.62-17.39,3.96-17.46,18.87-24.23,18.32-5.15-11.34-15.5-19.2-28.05-19.03-15.73.21-25.69,13.15-23.89,28.33.93,7.81,5.32,13.88,11.43,17.31,6.71,3.78,14.4,4.53,21.51,1.75,15.74-6.14,17.12-21.03,20.35-22.24,3.57-1.34,3.85,17.06,22.32,22.81v-.02ZM450.37,863.04c4.19-7,5.08-15.68-.2-21.93-3.45,7.02-4.42,15.22.2,21.93Z"/>
      <path d="M438.85,823.92c0,7.41-6,13.41-13.41,13.41s-13.41-6-13.41-13.41,6-13.41,13.41-13.41,13.41,6,13.41,13.41ZM431.18,824c0-3.26-2.64-5.9-5.9-5.9s-5.9,2.64-5.9,5.9,2.64,5.9,5.9,5.9,5.9-2.64,5.9-5.9Z"/>
      <path d="M489.43,823.78c0,7.32-5.94,13.26-13.26,13.26s-13.26-5.94-13.26-13.26,5.94-13.26,13.26-13.26,13.26,5.94,13.26,13.26ZM482.18,823.93c0-3.24-2.63-5.87-5.87-5.87s-5.87,2.63-5.87,5.87,2.63,5.87,5.87,5.87,5.87-2.63,5.87-5.87Z"/>
    </g>
  </g>
</svg>