<?xml version="1.0" encoding="UTF-8"?>
<svg id="Calque_1" xmlns="http://www.w3.org/2000/svg" version="1.1" viewBox="0 0 2000 2008">
  <style>
    path {
      fill: #ffffff;
    }
  </style>
  <path d="M889.46,1524.76c41.45-14.58,82.42-29.86,124.92-41.16,28.3-6.97,74.22-20.31,99.81-3.81,17.71,11.75,24.99,34.55,23.57,55.19-1.41,20.41-8.14,38.46-16.02,57.59-16.68,39.11-40.49,74.25-70.15,105.26-14.9,16.19-36.41,35.09-30.18,58.96,3.21,11.62,10.99,19.96,20.14,30.83,22.24,25.31,43.13,52.67,55.47,84.19,16,42.41,13,89.38-43.42,91.66-33.77,1.84-67.89-3.66-101.26-9.25-57.42-10.61-114.06-28.14-168.41-48.97-45.04-17.74-88.96-36.65-131.1-60.93-31.52-18.01-62.55-35.76-92.51-56.5-35.6-24.73-69.53-52.29-102.99-79.78-42.01-34.47-79.25-74.82-113.56-116.98-47.12-56.02-88.25-117.32-121.35-182.62-23.87-49.92-45.39-103.15-59.8-156.67-11.3-42.23-19.13-84.53-23.56-128.26-4.07-37.62-6.83-74.78-6.51-112.52,1.59-61.85,8.01-123.12,19.69-183.92,8.98-45.72,23.52-90.19,38.55-134.1,12.85-38.92,29.57-76.35,48.26-112.8,24.17-48.12,53.11-94.31,84.53-138.36,14.13-19.17,29.04-37.47,44.82-55.4,13.2-15.18,26.19-30.96,39.89-45.83,25.2-26.67,52.96-51.79,81.14-75.4,16.9-14.16,56.95-44.8,86.65-65.71,74.27-49.51,155.29-88.59,240.2-115.98,58.16-18.44,119.26-31.31,179.77-38.52,21.51-2.35,45.59-2.88,67.89-2.94,33.71.34,70.9-.56,104.29.37,64.99,1.68,128.64,15.72,191.34,31.87,38.01,10.25,153.27,39.79,140.73,91.44-4.71,17.98-18.45,29.56-31.77,42.72-9.21,8.9-18.34,17.93-26.65,27.7-13.96,16.26-26.4,33.72-35.4,53.14-5.43,11.65-11.53,27.24-10.17,39.85.14,1.28.38,2.55.81,3.77,7.56,21.41,45.47-15.18,55.4-23.13,14.66-12.46,29.34-25.53,44.81-36.67,18.8-13.41,41.83-26.49,65.44-22.4,50.26,11.2,25.59,96.14,15.57,130.18-13.56,40.91-31.27,80.67-52.54,118.09-24.5,42.44-50.88,84.35-82.18,122.24-48.04,61.1-106.5,115.52-171.53,158.3-57.57,37.5-121.2,68.97-182.46,99.1-57.33,27.98-117.11,55.8-170.18,91.48-30.35,19.71-58.35,45.99-84.32,72.21-48.26,47.37-85.82,100.48-114.53,162.1-11.05,22.64-25.03,66.17-54.67,64.28-12.91-1.23-24.71-16.11-28.92-29.15-9.58-27.65-8-58.07-1.42-86.39,2.49-10.47,5.96-20.92,8.91-31.19,7.32-23.88,4.23-32.02-18.11-13.35-43.56,38.75-74.61,89.28-97.77,142.37-54.67,124.07-39.37,273.71,36.65,385.48,17.67,26.31,39.01,50.64,62.6,71.7,6.73,6.36,44.25,36.39,28.02,12.06-7.04-10.51-14.83-20.1-22.56-30.8-10.62-14.87-20.69-29.95-29.91-45.75-10.38-17.8-23.62-39.67-29.48-58.4-5.84-19.83.79-26.13,21.03-22.61,14.83,2.45,29.13,6.85,44.43,8.4,85.84,8.98,169.69-18.98,249.87-46.21l.18-.06ZM1104.67,332.78c28.83,5.83,58.78-7.59,76.46-30.44,18-22.79,19.46-56.88,2.23-80.58-12.1-16.74-29.93-30.29-50.6-33.4-21.52-3.78-43.58,4.09-60.05,17.61-16.01,12.48-27.2,32.31-28.43,52.63-.87,17.33,5.61,33.25,16.18,46.61,11.25,14.43,25.87,23.95,44.02,27.54l.18.04ZM1132.12,759.02c20.88-8.03,55.28-21.52,6.51-18.91-14.82.37-29.55-.01-44.3-1.84-40.34-5.35-80.27-17.26-115.7-36.99-41.8-24.48-76.76-59.7-106.57-97.61-.36-.46-.7-.93-1.02-1.42-32.84-50.14-53.68-108.61-60.36-168.13-2.28-19.44-5.06-38.87-5.54-58.76,0-.37-.04-.75-.07-1.12-.84-9.29,2.36-43.93-5.08-44.26-2.1.17-4.73,2.93-7.31,7.89-3.83,7.22-6.48,15.15-8.84,23-6.31,19.74-9.27,39.96-11.71,60.51-1.67,16.31-2.74,28.63-2.36,48.47.49,24.89,3.64,50.08,9.53,74.32,9.94,36.11,22.44,71.5,43.63,102.54,14.66,24.06,32.37,47.86,54.72,65.43,38.26,31.51,84.11,55.36,133.9,61,23.37,2.51,50.58,3.43,73.25-.65,15.84-3.16,31.84-7.92,47.15-13.39l.18-.07Z"/>
  <path d="M90.25,970.17c-22.2,14.49-39.09-100.84-40.36-116.33-9.81-119.66-9.97-127.65-7.39-213.14,1.78-59.16,6.88-118.43,26.82-174.33,25.05-81.24,85.39-126.81,160.12-160.49,55.29-22.41,112.22-42.37,171.7-50.04,60.15-.68,6.4,23.96-35.13,69.03-30.64,33.26-59.74,65.03-85.5,101.77-73.11,100.7-123.51,216.36-153.74,336.79-8.94,39.78-17.78,79.49-22.71,119.93-2.46,20.41-5.09,40.58-6.6,61.19-.41,8.08-1.46,20.99-7.14,25.56l-.08.07Z"/>
  <g>
    <path d="M1169.2,1850.25c-19.8-26.53-11.71-43.15,20.78-48.15,21-4.39,41.34-8.65,61.96-14.11,56.86-15.38,112.49-36.01,164.42-63.66,266.84-133.85,438.75-403.22,441.77-702.37-1.38-144.32-39.48-280.39-112.58-404.69-22.82-37.41-48.37-73.29-75.61-107.56-35.12-40.33-47.22-53.48-26.17-107.4.04-.1.07-.21.1-.31,21.21-82.61,61.52-11.15,92.89,20.99.04.04.08.08.11.12,59.24,68.58,108.74,145.67,145.88,228.37,114.67,254.85,101.07,563.44-37.48,806.46-89.63,159.42-229.41,287.62-395.36,364.32-53.15,25.61-109.48,46.32-166.45,61.38-58.72,14.52-76.33,23.9-114.15-33.22l-.11-.16Z"/>
    <path d="M1399.43,1362.43c-6.4,2.02-11.52-.08-15.98-4.22-69.79-62.27-224.37-208.46-268.31-243.64-.29-.24-.62-.41-.98-.52-8-2.35-18.54-1.33-28.44-2.62-13.73-1.28-27.36-5.26-39.27-12.27-36.93-20.9-55.13-68.48-42.14-108.84,5.82-19.11,18.11-36.33,34.28-48.12,32.07-23.21,69.37-22.23,103.26-5.37.05.03.11.05.16.07,7.72,3.16,10.43,5.15,16.12,2.62.07-.03.15-.07.22-.11,48.37-25.69,318.48-170.7,432.94-231.89,15.05-8.05,17.62-9.36,33.76-18.28,7.78-4.28,15.77-8.91,24.2-12.07,9.47-3.72,21.54-4.86,28.29,2.85,7.23,8.59,5.31,22.45-4.08,28-53.22,35.2-430.06,280.73-481.64,315.51-.17.12-.33.24-.47.39-1.68,1.77-3.15,4.28-4.26,8.61-2.54,9.88-2.98,14.31-6.05,20.45-5.3,10.6,6.98,21.81,14.72,30.43,49.74,56.96,137.59,156.41,186.58,212.24,8.16,9.64,16.53,17.83,23.91,28.03,5.32,7.76,9.63,17.25,6.53,26.19-2.02,5.94-7.48,10.74-13.21,12.53l-.11.03Z"/>
    <path d="M1784.23,1021.39c20.32,5.58,26.65,28.69,8.27,41.09-.08.06-.17.11-.26.16-10.67,6.14-19.99,4.94-35.37,5.27-6.84,0-13.32.01-20.63.02-14.6.01-29.59.02-44.13.03-17.09-.42-27.72,1.34-39.19-7.58-5.17-4.45-8.8-11.38-8.14-18.44.77-7.56,5.94-14.22,12.46-17.85,9.59-5.45,23.6-4.66,35.08-4.81,17.06,0,40.67-.02,59.72-.02,11.42.05,23.86-.3,32.02,2.08l.15.04Z"/>
    <path d="M1570.83,1541.11c-11.54,1.42-22.92-6.78-31.43-14.87-7.92-7.45-15.79-15.22-22.85-23.52-8.69-10.39-13.99-20.81-9.99-33.26,4.59-14.24,20.3-19.05,33.33-13.1,10.26,4.28,19.53,13.39,27.87,21.73,8.62,8.78,17.56,17.86,21.95,28.98,6.54,15.33-1.42,32.4-18.7,34.03l-.18.02Z"/>
  </g>
</svg>
