<?xml version="1.0" encoding="UTF-8"?>
<svg id="Calque_1" xmlns="http://www.w3.org/2000/svg" version="1.1" viewBox="0 0 1141 235" fill="#fff">
  <!-- Generator: Adobe Illustrator 30.1.0, SVG Export Plug-In . SVG Version: 2.1.1 Build 136)  -->
  <path d="M165.76,145.54c13.18,14.28,13.63,35.88,2.06,51.3-9.44,12.57-23.78,18.33-39.37,16.25-13.66-1.83-26.61-11.04-31.99-25.28-3.57-9.44-3.09-20.27-.22-29.79,1.95-6.47,6.31-10.63,9.27-17.9,4.2-6.33-9.28,5.42-13.95,8.2-9.91,5.91-19.9,8.74-31.74,7.55-16.23-1.63-29.62-14.27-33.22-29.04-4.18-17.11,2.46-33.41,16.97-43.21,10.55-7.13,23.2-7.79,35.68-4.33,9.12,2.53,16.17,8.35,24.88,13.27,4.22,2.13-2.04-6.27-3.74-8.7-4.83-6.89-6.31-14.54-6.42-22.81-.13-10.18,3.29-18.8,9.91-26.22,9.3-10.43,22-15.05,36.3-13.56s26.53,11.6,31.7,23.61c6.55,15.21,4.02,30.15-5.33,42.78-6.42,8.67-14.42,15.23-22.08,23.65l899.83.03c2.27-9.21,6.87-16.24,15.45-20.66,9.11-4.69,21.04-4.68,30.41.41,10.81,5.87,15.67,17.87,14.65,30.06-1.17,13.98-12.41,24.37-26.14,26.13-16.46,2.1-31.11-8.2-34.36-24.91l-899.81.14,21.27,23.05ZM129.74,107.87c12.83-10.97,36.36-30.51,34.42-47.63-2.18-14.65-13.09-26.7-28.18-27.35-17.6-.76-30.96,13.8-31.24,30.86,4.76,16.92,15.42,29.31,25.01,44.12ZM117.59,116.14c-15.94-10.75-32.1-25.32-50.76-27.39-15.67-.3-29.9,11.97-29.88,28.22.03,17.9,16.86,30.42,33.81,27.37,16.39-4.27,32.81-17.73,46.83-28.2ZM1093.47,117.19c0-10.36-8.39-18.75-18.75-18.75s-18.75,8.39-18.75,18.75,8.39,18.75,18.75,18.75,18.75-8.39,18.75-18.75ZM163.94,168.86c-1.98-14.72-20.82-31.65-31.44-40.3-1.31-1.07-2.14-2.86-4-1.79-.93.53-1.07,1.98-1.89,3.1-8.05,10.92-15.41,22.06-20.23,34.77-1.83,4.83-1.96,9.42-.64,14.25,4.26,15.47,18.87,25.18,34.54,22.27,14.27-2.65,25.77-16.54,23.65-32.3Z"/>
</svg>