<?xml version="1.0" encoding="UTF-8"?>
<svg id="Calque_1" xmlns="http://www.w3.org/2000/svg" version="1.1" viewBox="0 0 871 871" fill="#fff">
  <!-- Generator: Adobe Illustrator 30.1.0, SVG Export Plug-In . SVG Version: 2.1.1 Build 136)  -->
  <path d="M117.33,392.32c23.52,10.6,48.7-.29,57.96-23.39,7.89-19.66,6.44-44.45-11.71-57.66-4.66-3.39-9.76-4.73-15.58-4.94-11.31-.4-20.36,7.38-21.65,18.64-2.15,18.8,13.25,23.23,13.76,27.04.16,1.24-.19,3.58-1.62,4.59-3.82,2.7-9.03,1.3-12.25-1.78-8.07-7.72-10.31-17.99-10.28-28.8.05-16.26,10.86-28.09,27.11-29.8,12.54-1.32,24.33,2.25,32.96,11.78,11.74,12.96,16.36,29.46,13.76,47.11-3.18,21.62-16.16,41.34-37.11,49.23-9.85,3.71-22.75,3.87-33.15.61-25.75-8.09-43.62-33.31-49.09-59-4.28-20.12-5.11-26.84-3.57-48.68.49-6.95,2.29-13.46,3.53-20.31,3.55-19.64,10.66-37.85,21-54.84.72-1.19,4.53-7.96,4.46-8.76-.32-3.75-19.6,21.15-21.6,24.12-21.07,31.3-31.1,64.34-27.13,102.29,2.77,26.46,14.02,49.55,32.71,68.35l26.45,26.6c14.45,14.53,30.16,36.81,33.28,57.35,1.67,11,2.3,22.73-.16,33.49-4.51,19.74-17.1,35.98-34.96,44.52-14.47,6.92-28.53,1.57-28.53,6.2l-.18,262.52c-2.89,1.47-5.86,1.2-9.21.17l-.06-262.78c0-5.12-1.46-7.25-5.46-9.34-16.76-8.77-25.72-25.17-24.81-43.89.72-14.7,8.3-27.71,21.75-33.61,13.71-6.02,27.93-1.78,35.44,11.26,8.34,14.47,6.78,42.62-7.28,44.04-2.86.29-5.41-.81-6.26-2.8-4.35-10.16,10.21-4.58,10.95-20.09.47-9.71-3.65-20.1-13.24-23.38-13.02-4.45-25.09,3.81-29.54,15.89-7.55,20.49,7.06,42.3,29.16,47.96,8.13,2.08,16.43,2.15,24.28-1.64,14.62-7.05,24.2-20.31,28.53-35.98,8.42-30.44-9.4-61.18-30.16-82.45l-32.56-33.36c-24.41-25.01-35.98-71.51-29.49-103.35,1.01-4.97,1.02-10.11,2.34-14.94l2.79-10.17c11.01-40.12,36.33-68.91,65.68-96.81,6.12-5.81,9.7-11.91,11.33-20.34.62-3.19,4.52-18.89,2.86-21.36-2.57-3.83-19.91-.26-34.94-3.95-20.35-4.99-33.29-22.97-30.34-44.09,1.94-13.87,12.86-25.37,26.6-28.26,13.1-2.75,25.89.47,35.93,8.69s14.45,20.31,14.7,33.84c.1,5.65-.53,12.97,2.26,17.89.1,3.36,24.47-2.65,26.37-3.25,6.03-1.91,13.32-2.52,18.05-7.23l19.61-19.52c12.94-12.88,26.16-24.2,41.39-34.5,38.24-25.87,87.75-36.97,132.93-26.35,23.93,5.62,43.87,18.25,61.54,35.04l38.47,36.54c17.57,16.69,46.59,29.64,71.46,23.36,21.69-5.47,39.21-22.45,41.15-45.15,1.07-12.49-6.67-24.72-15.3-31.44-16.04-12.5-40.82-12-51.72,4.43-4.8,7.23-4.53,14.93.3,21.68,7.92,11.09,22.06,11.08,33.3,4.29.63-.38,1.2-.85,1.71-1.38l1.23-1.28c.98-1.01,1.48-1.76,2.29-2.91,1.38-1.95,3.91-3.73,5.35-2.74,1.8,1.24,3.01,3.78,2.8,6.54-1.05,14.07-31.21,17.88-45.63,11.26-12.28-5.64-16.96-19.16-14.62-32.44,3.4-11.77,13.07-19.89,25.17-24.1,23.52-8.2,49.16,3.44,60.85,25.44h241.28c1.17,1.97,1.78,6.25.15,7.9-2.3,2.33-6.2.76-9.5.77l-187.87.24-36.14-.1c-1.35,0-2.51,1.09-3.35,1.82-.09.08,2.44,19.96-7.97,36.72-15.13,24.37-44.62,36.64-72.36,30.36-24.36-5.51-41.56-17.8-59.01-34.99-12.25-12.07-23.98-23.71-37.12-34.81-15.48-13.07-32.99-22.23-52.85-26.37-10.44-2.17-20.21-3.57-31.05-3.12-40.93,1.73-72.83,15.73-105.04,40-1.06.8-12.56,9.71-10.63,10.46.67.26,11.24-5.26,12.65-6.06,35-19.92,79.99-27.92,119.53-22.31,27.25,3.86,57.37,18.42,69.46,44.08,8.1,17.19,6.23,38.03-4.63,53.16-12.55,17.48-31.12,25.85-52.27,25.65-16.06-.15-30.92-5.76-40.73-18.94-7.4-9.94-10.36-23.54-5.42-35.27,7.4-17.57,27.61-23.69,44.67-16.65,5.88,2.43,11.75,5.18,13.72,11.41,1.01,3.18-.54,6.66-3.06,8.32-8.09,5.34-10.55-12.58-27.28-11.59-9.44.56-19.01,8.98-19.37,18.98-.53,15.14,10.96,27.24,24.66,31.2,11.51,3.32,22.48,2.7,33.64-.97,26.25-8.65,38.2-39.55,24-63.94-8.83-15.17-23.63-25.46-40.45-30.84-15.66-5.01-31.79-7.26-48.22-6.31-12.89.74-25.82,1.61-38.12,4.83-32.74,8.56-63.46,23.6-88.38,46.68-4.29,3.97-17.11,31.6-11.81,35.39,6.58,3.26,13.81,2.78,20.56,5.09,37.17,12.68,74.86,45.54,80.79,85.46,1.89,12.72,2.31,25-1.06,37.49-27.24,4.46-54.21-6.17-73.81-24.32-8.47-7.84-15.82-16.12-21.58-26.21-6.53-11.43-14.52-27.13-16.79-39.85l-3.99-22.3c-1.38-7.7-35.85,3.14-48.76,19.96-13.41,17.47-23.19,37.16-31.66,57.32-3.6,8.57-5.69,17.04-8.18,25.86-4.11,14.58-5.73,38.36-3.11,53.08,4.45,25.03,15.23,51.56,40.11,62.77ZM120.27,129.04c2.34-.05,4.71-2.36,4.66-4.44-.18-8.03.25-15.97-1.5-23.63-2.41-10.6-9.14-19.31-17.82-22.79-10.5-4.21-22.35-3.77-30.56,3.95-10.58,9.95-9.45,28,.98,37.71,11.8,10.99,28.77,9.54,44.23,9.19ZM164.15,159.61c10.03-1.04,7.51-8.52,12.09-22.64.63-1.94-.03-4.15-1.39-5.36-1.09-.98-2.93-.53-4.89-.03-9.31,2.41-18.39,4.44-27.94,6.11-2.69.47-5.28.02-6.87,2.08-1.27,1.64-1.11,3.83-1.37,6.27-.51,4.76-5.24,20.25-2.08,21.7,3.46,1.58,15.41-6.36,32.45-8.13ZM275.9,273.46c2.51-15,.24-30.43-6.86-44.36-26.87-52.65-85.92-62.37-86.98-56.93-1.6,8.27.06,16.17,2.08,24.33,4.74,19.12,14.44,35.96,27.6,50.74,10.33,11.61,23.57,19.87,38.07,25.22,4.56,1.68,25.2,6.29,26.08.99Z"/>
  <path d="M257.07,247.1c1.17,1.65,5.27,9.3,4.36,10.22-.99.99-8.34-2.93-9.95-4.03-6.72-4.62-12.36-10.73-16.42-17.06-.89-1.38-4.14-8.03-3.44-8.9.82-1.01,7.47,2.38,8.99,3.47,6.56,4.73,11.79,9.73,16.47,16.3Z"/>
</svg>